<svg xmlns="http://www.w3.org/2000/svg" xmlns:xlink="http://www.w3.org/1999/xlink" width="71.06" height="36.5" viewBox="0 0 71.06 36.5"><defs><clipPath id="clip-path"><rect width="71.06" height="36.5" fill="none"/></clipPath></defs><g id="Layer_2" data-name="Layer 2"><g id="Layer_1-2" data-name="Layer 1"><rect width="71.06" height="36.5" fill="#319e2d"/><rect x="63.16" y="6.05" width="2.26" height="17.78" fill="#fff"/><g clip-path="url(#clip-path)"><path d="M66.23,28.11V28a1.94,1.94,0,1,0-1.9,2,1.9,1.9,0,0,0,1.33-.57,1.88,1.88,0,0,0,.57-1.32" fill="#fff" fill-rule="evenodd"/><path d="M12.64,5.62h-.3a5.1,5.1,0,0,0-2.64.71A4.4,4.4,0,0,0,8,8.22a9,9,0,0,0-.55,3.62v.75H5.21V14.5H7.44V29.57H9.65v-15h3.5V12.6H9.65v-.74a8.18,8.18,0,0,1,.28-2.58,2.35,2.35,0,0,1,.92-1.14,2.87,2.87,0,0,1,1.61-.43,2.43,2.43,0,0,1,2.61,2.15h2.21A4.33,4.33,0,0,0,15.86,6.8a4.59,4.59,0,0,0-3.22-1.18" fill="#fff" fill-rule="evenodd"/><path d="M54.41,12.16a6.94,6.94,0,0,1,4.73,2.29l-1.41,1.44A5,5,0,0,0,54.3,14.2a2.63,2.63,0,0,0-1.82.7,2.15,2.15,0,0,0-.75,1.64,2.4,2.4,0,0,0,.62,1.57A8.53,8.53,0,0,0,55,19.9a9.94,9.94,0,0,1,3.32,2.44A4.47,4.47,0,0,1,59.15,25a4.81,4.81,0,0,1-1.47,3.54A5,5,0,0,1,54,30a6.38,6.38,0,0,1-2.81-.63A6.18,6.18,0,0,1,49,27.6L50.38,26a4.75,4.75,0,0,0,3.55,1.89,3.18,3.18,0,0,0,2.23-.84,2.6,2.6,0,0,0,.92-2,2.54,2.54,0,0,0-.6-1.67,9.57,9.57,0,0,0-2.76-1.8,9.13,9.13,0,0,1-3.12-2.35,4.4,4.4,0,0,1-.83-2.63,4.29,4.29,0,0,1,1.32-3.2,4.62,4.62,0,0,1,3.34-1.29" fill="#fff" fill-rule="evenodd"/><path d="M42.62,6.31h2.19V12.6h3.46v1.89H44.81V29.57H42.62V14.49h-3V12.6h3Z" fill="#fff" fill-rule="evenodd"/><path d="M33.35,26.35a6.38,6.38,0,0,1-2.09,1.19,7.21,7.21,0,0,1-2.52.46,6.05,6.05,0,0,1-4.51-1.89,6.8,6.8,0,0,1-1.89-4.85H37.61a9.15,9.15,0,0,0-1.87-5.79,8.37,8.37,0,0,0-6.93-3.3,7.9,7.9,0,0,0-6.73,3.21,9.08,9.08,0,0,0-2,5.76,9.27,9.27,0,0,0,2.34,6.16A8.13,8.13,0,0,0,28.93,30a9.34,9.34,0,0,0,3.36-.56A8.24,8.24,0,0,0,35,27.79a9.84,9.84,0,0,0,2.1-2.86l-1.85-1a9.9,9.9,0,0,1-1.86,2.41m-8.8-10.48a6.27,6.27,0,0,1,4.3-1.61,6.84,6.84,0,0,1,2.89.63A6.19,6.19,0,0,1,34,16.59a7.1,7.1,0,0,1,1.26,2.8H22.56a7.31,7.31,0,0,1,2-3.51" fill="#fff" fill-rule="evenodd"/><rect x="15.07" y="12.6" width="2.22" height="16.97" fill="#fff"/></g></g></g></svg>