<svg id="Layer_1" data-name="Layer 1" xmlns="http://www.w3.org/2000/svg" viewBox="0 0 479.38 144.9"><defs><style>.cls-1{fill:#dd052b;}.cls-2{fill:#e22039;}</style></defs><path class="cls-1" d="M1812.65,2841.43" transform="translate(-1291.06 -2642.57)"/><path class="cls-2" d="M1430.05,2687.25h-8.54a.19.19,0,0,1-.19-.15l-6.71-26.41a.2.2,0,0,0-.39,0l-6.6,26.41a.19.19,0,0,1-.19.15h-8.55a.2.2,0,0,1-.19-.15l-10.53-39.58a.2.2,0,0,1,.19-.25H1397a.19.19,0,0,1,.19.15l6.27,26.2a.2.2,0,0,0,.38,0l6.21-26.2a.2.2,0,0,1,.2-.15h8.14a.19.19,0,0,1,.19.15l6.49,26.26a.19.19,0,0,0,.38,0l6-26.25a.2.2,0,0,1,.2-.15h8.65a.2.2,0,0,1,.2.25l-10.32,39.58A.19.19,0,0,1,1430.05,2687.25Z" transform="translate(-1291.06 -2642.57)"/><path class="cls-2" d="M1464.31,2687.25h-7.6a.23.23,0,0,1-.17-.08,4.29,4.29,0,0,1-.82-2.45.19.19,0,0,0-.32-.13,13,13,0,0,1-9.26,3.45,9.66,9.66,0,0,1-7.23-2.69,8.75,8.75,0,0,1-.19-11.87q2.21-2.19,6.86-2.92l3.19-.56c2-.29,3.17-.49,3.58-.58a6.35,6.35,0,0,0,1.46-.59,2.46,2.46,0,0,0,1.34-2.41q0-3.08-4.65-3.08a7.25,7.25,0,0,0-4.11.87,4.37,4.37,0,0,0-1.52,3,.19.19,0,0,1-.19.17h-7.29a.21.21,0,0,1-.2-.22,9.53,9.53,0,0,1,3.63-7.17q3.3-2.52,9.52-2.52c4.21,0,7.38.72,9.49,2.16s3.16,3.65,3.16,6.63v16.47a6,6,0,0,0,1.46,4.2A.2.2,0,0,1,1464.31,2687.25Zm-9.16-11.93v-1.77a.2.2,0,0,0-.27-.18,17.18,17.18,0,0,1-3.09.83l-2.74.51a7.36,7.36,0,0,0-3.56,1.37,3.38,3.38,0,0,0-1,2.66,3.2,3.2,0,0,0,1.17,2.63,4.91,4.91,0,0,0,3.19,1,6,6,0,0,0,4.68-1.82A7.44,7.44,0,0,0,1455.15,2675.32Z" transform="translate(-1291.06 -2642.57)"/><path class="cls-2" d="M1473.37,2647.47v39.58a.2.2,0,0,1-.2.2h-7.61a.19.19,0,0,1-.19-.2v-39.58a.19.19,0,0,1,.19-.2h7.61A.2.2,0,0,1,1473.37,2647.47Z" transform="translate(-1291.06 -2642.57)"/><path class="cls-2" d="M1484,2647.47v39.58a.2.2,0,0,1-.19.2h-7.62a.19.19,0,0,1-.19-.2v-39.58a.19.19,0,0,1,.19-.2h7.62A.2.2,0,0,1,1484,2647.47Z" transform="translate(-1291.06 -2642.57)"/><path class="cls-2" d="M1500.3,2657.52q7.11,0,11.2,4.11t4.09,11.4q0,6.94-4.18,11t-11.06,4.06q-7,0-11.11-4.09t-4.12-11.2q0-7.05,4.12-11.17T1500.3,2657.52Zm0,5.82a6.35,6.35,0,0,0-5.26,2.6,12.71,12.71,0,0,0,0,13.75,6.56,6.56,0,0,0,10.5,0,10.72,10.72,0,0,0,2-6.77,11.25,11.25,0,0,0-2-7A6.35,6.35,0,0,0,1500.35,2663.34Z" transform="translate(-1291.06 -2642.57)"/><path class="cls-2" d="M1516.62,2658.08h7.62a.18.18,0,0,1,.19.19v3a.2.2,0,0,0,.36.11,9.08,9.08,0,0,1,3.51-2.9,13,13,0,0,1,5.37-1q4.93,0,7.65,2.57a9.57,9.57,0,0,1,2.71,7.28v19.68a.19.19,0,0,1-.19.2h-7.62a.19.19,0,0,1-.19-.2V2669q0-5.33-5.16-5.32a6.78,6.78,0,0,0-4.67,1.56,5.34,5.34,0,0,0-1.77,4.2v17.61a.19.19,0,0,1-.19.2h-7.62a.19.19,0,0,1-.19-.2v-28.78A.18.18,0,0,1,1516.62,2658.08Z" transform="translate(-1291.06 -2642.57)"/><path class="cls-2" d="M1554.31,2647.47v6.43a.19.19,0,0,1-.19.2h-7.61a.2.2,0,0,1-.2-.2v-6.43a.2.2,0,0,1,.2-.2h7.61A.19.19,0,0,1,1554.31,2647.47Zm0,10.8v28.78a.19.19,0,0,1-.19.2h-7.61a.2.2,0,0,1-.2-.2v-28.78a.19.19,0,0,1,.2-.19h7.61A.18.18,0,0,1,1554.31,2658.27Z" transform="translate(-1291.06 -2642.57)"/><path class="cls-2" d="M1583.73,2674.88h-20.45a.2.2,0,0,0-.2.21q.18,3.59,1.16,5a6,6,0,0,0,5.21,2.58,7.25,7.25,0,0,0,3.81-1,5.61,5.61,0,0,0,2.3-2.65.2.2,0,0,1,.18-.12h7.43a.21.21,0,0,1,.2.27,11.62,11.62,0,0,1-5.07,6.45,17,17,0,0,1-9.13,2.41A13.5,13.5,0,0,1,1559,2684a14.91,14.91,0,0,1-3.92-10.75q0-7.23,3.92-11.46a13.48,13.48,0,0,1,10.36-4.22,15.37,15.37,0,0,1,8.32,2.29,11.46,11.46,0,0,1,4.95,5.94,22.89,22.89,0,0,1,1.23,7.78A7.68,7.68,0,0,1,1583.73,2674.88Zm-20.32-5.16h11.86a.2.2,0,0,0,.2-.23,9,9,0,0,0-1.26-4,5.91,5.91,0,0,0-5-2.47q-5.18,0-6,6.49A.2.2,0,0,0,1563.41,2669.72Z" transform="translate(-1291.06 -2642.57)"/><path class="cls-2" d="M1331.1,2726.78c.46.92,2.57,2.08,2.92,2.94a.39.39,0,0,0,.08.1,1.66,1.66,0,0,1,.63,2.2.21.21,0,0,1-.39-.1c0-.49-.06-1-.49-1a6.31,6.31,0,0,1-1.43,0,2.11,2.11,0,0,1-1.24-1.27.23.23,0,0,0-.21-.14c-1.44.11-2.88-.26-4.31,0a.21.21,0,0,0-.16.11c-.71,1.35-1.63,3.09-3.43,3a.24.24,0,0,0-.21.12,2.18,2.18,0,0,0,0,1.29.21.21,0,0,1-.27.24,1.2,1.2,0,0,1-.68-.47,1.11,1.11,0,0,1-.2-.82c.08-1.41,1.13-2.27,2.12-3.18a.22.22,0,0,0,0-.34c-.57-.3-.94-.09-1.67-.19a7.84,7.84,0,0,1-1,.05.21.21,0,0,0-.24.1,1.19,1.19,0,0,1-1.37.61.42.42,0,0,0-.5.29,1.51,1.51,0,0,0,0,1,.2.2,0,0,1-.31.22,1,1,0,0,1-.51-.43,11.17,11.17,0,0,1-.46-1.12.19.19,0,0,1,0-.19,7.72,7.72,0,0,1,.72-1,3.83,3.83,0,0,1,2.83-1c1.72,0,3.57-.2,5.29-.29.29,0,1.86-2.37,2.38-3.27a36.88,36.88,0,0,0,3.52-6.58,5.75,5.75,0,0,0,.32-2.33.21.21,0,0,1,.18-.23c.84-.08,1,1.07,1.53,1.35s1.34-.22,2,0a.21.21,0,0,1,.08.36c-2.46,2.17-4.94,5-5.65,8A2.88,2.88,0,0,0,1331.1,2726.78Zm3.32-4c-.49,0-1,0-1.46-.06a.2.2,0,0,0-.22.1c-.09.17-.18.37-.27.56a.21.21,0,0,0,.21.29,4.33,4.33,0,0,0,1.84-.5A.21.21,0,0,0,1334.42,2722.79ZM1316.77,2707c-.28-1.06-1.35-1.37-1.63-2.36a.2.2,0,0,0-.18-.16,22,22,0,0,1-3.35-.6,23.85,23.85,0,0,1-5.79-2.21,7.8,7.8,0,0,0-3-.79c-.81-.09-1.76-.05-2.34-.12a2.08,2.08,0,0,0-1.32.42c-.41.22-4.26,2.38-6.3,2.5a2.15,2.15,0,0,0-1.85,1.81c0,.81.43,2,1.23,2-.19-.39-.57-1-.51-1.11.15-.28,4.63-2.21,5.93-3.23a.21.21,0,0,1,.2,0l.12,0a.21.21,0,0,1,.13.27c-.32,1-1.92,2.77-2.2,3.88a2,2,0,0,0,.67,2.37.21.21,0,0,0,.31-.22,1.17,1.17,0,0,1-.07-.65c.21-.41.76-.6.91-1.11.43-1.41.33-3.17,1.58-4.11a.23.23,0,0,1,.16,0,8,8,0,0,0,1.36.1,9.63,9.63,0,0,0,1.95-.36.21.21,0,0,1,.24.14c.47,1.33.2,2.77.61,4.17a3.29,3.29,0,0,0,1.13,1.7.29.29,0,0,1,.1.28.21.21,0,0,0,.4.11c.84-1.76-.45-4.1-.75-6.22a.21.21,0,0,1,.21-.24,4.58,4.58,0,0,1,3.29,1.44,5.64,5.64,0,0,1,.52,1.71,3.35,3.35,0,0,1,0,1.14.21.21,0,0,0,.38.13,4.69,4.69,0,0,0,.44-2.47c0-.21.3-.22.41-.21a9.92,9.92,0,0,1,2.66.62,9.5,9.5,0,0,1,4,2.2.21.21,0,0,0,.36-.13A2,2,0,0,0,1316.77,2707Zm30-13.9a2.13,2.13,0,0,0-3-.58.2.2,0,0,0-.06.25c.3.66.68,1.38,1,2a.21.21,0,0,0,.35,0,4.62,4.62,0,0,1,1.61-1.34A.21.21,0,0,0,1346.8,2693.14Zm10.8,9.06a.21.21,0,0,0,.27.29c2.48-1.14,4.54-3.72,4.54-7.83,0-4.88-3.85-10.22-9.48-10.22-5.07,0-9.07,3.4-10.61,5a.22.22,0,0,0,0,.24c.29.61.63,1.37.93,2a.2.2,0,0,0,.29.09,3,3,0,0,1,3.5.33,3.69,3.69,0,0,1,.4,4.72.21.21,0,0,0,.2.32,5.55,5.55,0,0,0,4.25-3.19.21.21,0,0,1,.39,0,7.71,7.71,0,0,1,.3,5.33.21.21,0,0,0,.19.28,5.48,5.48,0,0,0,4.77-2.2.2.2,0,0,1,.36.08A7.94,7.94,0,0,1,1357.6,2702.2Zm.44-19.38a.21.21,0,0,0,.17-.36,8.33,8.33,0,0,0-5.91-2.28c-3.64,0-7.83,2.92-11.26,6.79a.21.21,0,0,0,0,.24l.45.81a.21.21,0,0,0,.33.05,19.44,19.44,0,0,1,13.29-5.44A22.08,22.08,0,0,1,1358,2682.82Zm1.42-5.76a22.54,22.54,0,0,1,2.5.13.21.21,0,0,0,.11-.4,17.88,17.88,0,0,0-7.33-1.39,19,19,0,0,0-10,3.2,17.3,17.3,0,0,0-5.44,6,.21.21,0,0,0,0,.23c.18.23.36.45.53.69l.17.24a.2.2,0,0,0,.32,0,27.68,27.68,0,0,1,7.91-5.94A25.8,25.8,0,0,1,1359.46,2677.06Zm-3.36-3.81c-.46,0-.93,0-1.39,0a.2.2,0,0,0-.13.06l-.51.44a.21.21,0,0,0,.15.37c.42,0,.87,0,1.22,0a.2.2,0,0,0,.11,0,7.39,7.39,0,0,0,.66-.42A.21.21,0,0,0,1356.1,2673.25Zm2.94-2.72a10.78,10.78,0,0,0,.89-3,.22.22,0,0,0-.22-.24l-1.27.06a.22.22,0,0,0-.19.16,10,10,0,0,1-.94,2.49.2.2,0,0,0,.13.3c.45.11.9.23,1.34.36A.22.22,0,0,0,1359,2670.53Zm-15.37,3.47a17.13,17.13,0,0,0-3.6,6.68.21.21,0,0,0,.37.19,16,16,0,0,1,3-2.91.21.21,0,0,0,.08-.17,10.19,10.19,0,0,1,.55-3.58A.21.21,0,0,0,1343.67,2674Zm9.61-15.22a23.33,23.33,0,0,1,8.82,0,.14.14,0,0,0,.11,0,24,24,0,0,0,7.33-4.39.21.21,0,0,0-.22-.35,14.46,14.46,0,0,1-6.36,1.12.22.22,0,0,1-.13-.38,15.29,15.29,0,0,0,5.5-8.27.21.21,0,0,0-.36-.19,56,56,0,0,1-14.82,12.09A.21.21,0,0,0,1353.28,2658.78Zm6.69,7.14c3.84,0,7.45,1,10,3.68a11.16,11.16,0,0,1,2.79,7.93.21.21,0,0,0,.41.1,11.79,11.79,0,0,0-1.49-11.67c-3-4.16-8.29-6.31-14-6.31a22.62,22.62,0,0,0-18,8.85,18.73,18.73,0,0,0-3.47,13.05.22.22,0,0,0,.08.14c.48.41.94.83,1.39,1.27a.21.21,0,0,0,.36-.12C1339.6,2672.59,1349.06,2665.92,1360,2665.92Zm-36.59,29.63a9.37,9.37,0,0,0,7.7-3.73.22.22,0,0,0-.22-.34,11.24,11.24,0,0,1-2.62.24.21.21,0,0,1-.12-.38,6.83,6.83,0,0,0,2.41-5.23c0-4.58-4.45-8.3-8.84-8.3a6.74,6.74,0,0,0-5.55,3.05.17.17,0,0,1-.17.08c-2.48-.07-4.44,1.37-4.44,3.63C1311.53,2687.7,1316.23,2695.55,1323.38,2695.55Zm7.74-1.85a12.24,12.24,0,0,0,1.89.05.2.2,0,0,0,.2-.21,13.65,13.65,0,0,0-.27-2.19.21.21,0,0,0-.38-.07,10.89,10.89,0,0,1-1.57,2.06A.21.21,0,0,0,1331.12,2693.7Zm7.28,7.24a39.37,39.37,0,0,1-10.4-.78.21.21,0,0,0-.16.38c2.93,1.92,7.2,2.22,10.44,2.08a.2.2,0,0,0,.19-.17,7,7,0,0,0,.15-1.29A.2.2,0,0,0,1338.4,2700.94Zm-9.57-5.45a14.54,14.54,0,0,1,4,1.33.21.21,0,0,0,.3-.16,9.38,9.38,0,0,0,.09-1.43.21.21,0,0,0-.21-.21,18,18,0,0,1-3.31-.45l-.17,0a7.87,7.87,0,0,1-.77.49A.21.21,0,0,0,1328.83,2695.49Zm-6.11,1.48a27.9,27.9,0,0,0,9.57,2.56.21.21,0,0,0,.22-.14c.11-.32.21-.64.3-1l-.11-.24a12.8,12.8,0,0,0-7.41-1.78,12.32,12.32,0,0,1-2.47.17A.21.21,0,0,0,1322.72,2697Zm13.56,2.74c.68,0,1.53,0,2.19-.05a.21.21,0,0,0,.18-.21,10.13,10.13,0,0,0-.2-2,.21.21,0,0,0-.38-.08,8.74,8.74,0,0,1-1.91,1.95A.21.21,0,0,0,1336.28,2699.71Zm-10.06,1.15a11.92,11.92,0,0,1-1.67-1.69.16.16,0,0,0-.08-.06,28.11,28.11,0,0,1-8.1-4.67l-.07,0a21.63,21.63,0,0,1-7.46-3.89.21.21,0,0,0-.33.24c2.37,6.8,9,10.65,17.59,10.49A.22.22,0,0,0,1326.22,2700.86Zm-1.36,7a12.66,12.66,0,0,1-4.11-5.72.22.22,0,0,0-.16-.14,19.81,19.81,0,0,1-4.11-1.29.22.22,0,0,0-.3.21c.06.68.41,1.5.48,2.29s-.21.69-.49.74.09,1.12,1.86,2.22a.21.21,0,0,1,.1.23,2.54,2.54,0,0,0,1,2.87c.78.51,1.87.49,3.38-.29a7.34,7.34,0,0,1,2.26-.75A.22.22,0,0,0,1324.86,2707.9Zm14.16,6c.35-1.26,0-2.4,0-3.55a8,8,0,0,1,.49-2.23.21.21,0,0,0-.31-.24,21.75,21.75,0,0,1-3.66,1.95.21.21,0,0,1-.25-.32,15.66,15.66,0,0,0,2.78-5.31.21.21,0,0,0-.2-.27,26.26,26.26,0,0,1-9.49-1.55.16.16,0,0,0-.1,0,21.08,21.08,0,0,1-5.71,0,.22.22,0,0,0-.23.29c1.13,2.53,3.23,4.54,6.58,6.61,1.53.95,3.33,2.24,3.77,4.16a.22.22,0,0,0,.28.16.87.87,0,0,1,1.28.48c.26.5.6,1,1,1a4.18,4.18,0,0,0,.85-.17,1.27,1.27,0,0,1,.74,0,1.41,1.41,0,0,0,.78.18A1.56,1.56,0,0,0,1339,2713.9Zm8.64-5.55a11.12,11.12,0,0,1-2.67-6.75.21.21,0,0,1,.33-.2,7.63,7.63,0,0,0,4,1.47.21.21,0,0,0,.14-.37,29.34,29.34,0,0,1-7.59-10.78,22.63,22.63,0,0,0-7.25-9.76,21,21,0,0,0-6.38-3.26.21.21,0,0,0-.19.37,8.63,8.63,0,0,1,2.65,10.78.21.21,0,0,0,.26.3,6.81,6.81,0,0,0,2.14-1.25.21.21,0,0,1,.34.1,17.6,17.6,0,0,1,.28,10.18.21.21,0,0,0,.31.24,9.59,9.59,0,0,0,4.34-5.23.2.2,0,0,1,.39,0,15.68,15.68,0,0,1-.55,12.58.21.21,0,0,0,.31.26,16.73,16.73,0,0,0,2-1.55.21.21,0,0,1,.35.16,14,14,0,0,0,2.32,8.6.21.21,0,0,0,.39-.12,42.24,42.24,0,0,1,.53-7.63.22.22,0,0,1,.4-.07,4.27,4.27,0,0,0,2.89,2.27A.21.21,0,0,0,1347.66,2708.35Zm15.61-3.08a10.78,10.78,0,0,1-8.49,1.23.21.21,0,0,0-.2.05,9.54,9.54,0,0,1-5.28,3.1.21.21,0,0,0,0,.41,4.85,4.85,0,0,0,3.4-.11.21.21,0,0,1,.27.29,8.87,8.87,0,0,1-3.37,3.49.21.21,0,0,0,.13.38,9.84,9.84,0,0,0,4.84-2,.21.21,0,0,1,.33.2,27.42,27.42,0,0,0-.14,9.18.21.21,0,0,0,.41,0,14.22,14.22,0,0,1,3.65-8.9.21.21,0,0,1,.36.1,10.72,10.72,0,0,0,1.23,3.14.21.21,0,0,0,.39-.08,29.34,29.34,0,0,1,2.8-10.19A.21.21,0,0,0,1363.27,2705.27Zm6.41-8a17.88,17.88,0,0,0-3-10.71,15.61,15.61,0,0,0-9.66-6.76.21.21,0,0,0-.14.39,11.63,11.63,0,0,1,4.56,4.42.21.21,0,0,1-.26.3,12,12,0,0,0-3-.77.21.21,0,0,0-.14.38,11.93,11.93,0,0,1,5.75,10.25,9.21,9.21,0,0,1-6.39,9.12,8.79,8.79,0,0,1-3.95.23.21.21,0,0,0-.16.38c2,1.4,5.28,1.51,7.83.47a9.14,9.14,0,0,0,4-3.29.21.21,0,0,1,.38.1,11.7,11.7,0,0,1-.41,4.23.21.21,0,0,0,.35.21A13.42,13.42,0,0,0,1369.68,2697.26Zm-6.12,22.29a.21.21,0,0,1-.4-.1,24,24,0,0,1,3.59-9,30.22,30.22,0,0,0,4.3-13.36c.56-8.46-6.07-16.89-13.57-18.48a.21.21,0,0,1,0-.42,18.67,18.67,0,0,1,11.84,3.07c3.42,2.5,6.78,8.16,6.78,15.22,0,6.86-2,10.89-3.57,15a38.2,38.2,0,0,0-2.78,13.65.21.21,0,0,1-.4.09c-1.75-3.72-1.5-7.71-1.17-10.43a.21.21,0,0,0-.33-.2A10.48,10.48,0,0,0,1363.56,2719.55Zm-45.87-42.83a.21.21,0,0,0,.39,0,15.94,15.94,0,0,1,3.75-4.84,15.51,15.51,0,0,0,2.36-2.92.21.21,0,0,1,.38.05,12,12,0,0,1,.59,3.7,14,14,0,0,0,.09,2.63.21.21,0,0,0,.41,0,25.53,25.53,0,0,1,2.08-5.89,15.37,15.37,0,0,0,1.23-5.66c0-4.54-2.59-6.87-5-6.87a2.67,2.67,0,0,0-2.73,2.51,13.55,13.55,0,0,1-1.23,4.68,10,10,0,0,1-4.84,4.63.21.21,0,0,0,0,.4,11.37,11.37,0,0,0,4.12,0,.21.21,0,0,1,.17.37,6.25,6.25,0,0,0-2.25,4.32A6.49,6.49,0,0,0,1317.69,2676.72Zm5.82-4.45c-1.07,1.12-3,2.86-3.74,4.29a.21.21,0,0,0,.23.3,9,9,0,0,1,4.19.17.21.21,0,0,0,.25-.29c-.58-1.22-.48-2.87-.57-4.34A.21.21,0,0,0,1323.51,2672.27Zm39.31,1.4a16.36,16.36,0,0,0-7-2.88.21.21,0,0,1-.13-.33,8.59,8.59,0,0,0,1.34-2.69.21.21,0,0,0-.23-.26,26.14,26.14,0,0,0-8.13,2.7,8.23,8.23,0,0,0-3.83,6.4.2.2,0,0,0,.31.2,20.6,20.6,0,0,1,6.06-2.32l.07,0a25.23,25.23,0,0,0,2.74-2.14.18.18,0,0,1,.14-.06,19.15,19.15,0,0,1,8.44,1.78A.21.21,0,0,0,1362.82,2673.67Zm-46.94-15.7a.21.21,0,0,0,0,.39,6,6,0,0,0,1.89.14,13.4,13.4,0,0,0,1.38-.31.21.21,0,0,0,.14-.3,3.49,3.49,0,0,0-.28-.48l-.4-.54a.2.2,0,0,0-.25-.07c-.58.22-1.15.48-1.71.75Zm-3,3.87a.89.89,0,0,0,.93,1c.68,0,1-.44,1.44-1.39a4.15,4.15,0,0,1,1.17-1.5.21.21,0,0,0-.14-.38,4.32,4.32,0,0,0-2.93,1.2A1.75,1.75,0,0,0,1312.85,2661.84Zm6.88-2.11a.22.22,0,0,0-.37-.13,7.14,7.14,0,0,1-2,1.27c-.88.44-1.54,1-1.54,1.88a1.16,1.16,0,0,0,1.26,1.09,2.26,2.26,0,0,0,2-1.17A4.33,4.33,0,0,0,1319.73,2659.73Zm1.46-3.67a.22.22,0,0,1,0-.32,1.1,1.1,0,0,0,.25-.37.84.84,0,1,0-1.51-.65,1.1,1.1,0,0,0-.09.39.21.21,0,0,1-.26.18.27.27,0,0,0-.32.12.72.72,0,0,0,.09.73,2.3,2.3,0,0,0,.56.62,5.76,5.76,0,0,1,.59.5.21.21,0,0,0,.32,0,3.64,3.64,0,0,1,.6-.64.23.23,0,0,0,0-.3A1.7,1.7,0,0,0,1321.19,2656.06Zm9-13a5.58,5.58,0,0,0-3.51,1.69.22.22,0,0,1-.37-.11c-.09-.57,0-1.31-.06-1.83a.21.21,0,0,0-.32-.17,8.14,8.14,0,0,0-3.26,3.4.21.21,0,0,1-.39,0,6.49,6.49,0,0,1-.14-1.54.22.22,0,0,0-.36-.15,9.05,9.05,0,0,0-2.24,3.58.22.22,0,0,1-.4,0c-.16-.37-.25-.82-.38-1.16a.21.21,0,0,0-.33-.09,8.12,8.12,0,0,0-2.63,7.17.22.22,0,0,0,.24.18,8.68,8.68,0,0,1,1.89-.27.21.21,0,0,0,.19-.08,6.42,6.42,0,0,1,8.73-1.5.26.26,0,0,0,.15,0,4.84,4.84,0,0,0,4.19-2.94,8,8,0,0,0-.8-6.11A.2.2,0,0,0,1330.18,2643Zm-13.79,27.67c-2.38-.2-3.68-.94-4.49-1.87a.22.22,0,0,1,.11-.35,14.21,14.21,0,0,0,4.32-1.86,9,9,0,0,0,1.32-1.22.21.21,0,0,0-.19-.35,2.49,2.49,0,0,1-2.53-1.12.21.21,0,0,0-.34-.06,9.7,9.7,0,0,1-4,2,3.15,3.15,0,0,0-1,.46,13.72,13.72,0,0,0-4.71,8.77.12.12,0,0,1,0,.08,9.4,9.4,0,0,0-.71,6.81c1,4.37,3.34,6.35,5.84,8.19a15.67,15.67,0,0,0,3.48,1.86.2.2,0,0,0,.24-.32c-2-2.55-3.3-4.94-3.3-7.1,0-3.18,2.75-4.65,4.94-4.88a.16.16,0,0,0,.14-.08,5.5,5.5,0,0,1,1.21-1.09.21.21,0,0,0,.06-.28,7.74,7.74,0,0,1-.22-7.25A.21.21,0,0,0,1316.39,2670.69Zm-.23-13.84a9.48,9.48,0,0,1,1.69-.71.21.21,0,0,0,.12-.3,2,2,0,0,1-.27-.82.21.21,0,0,0-.24-.19c-.27,0-.57.09-.89.17a3,3,0,0,0-1.77,1.05,8.23,8.23,0,0,0-.55,1.61.21.21,0,0,0,.32.23A17.4,17.4,0,0,1,1316.16,2656.85ZM1319,2654l.1.06a.22.22,0,0,0,.29-.05,2.1,2.1,0,0,1,2.41-.81,1.72,1.72,0,0,1,.42,2.64.62.62,0,0,1,.14.14,4.27,4.27,0,0,1,3.31.08,6.06,6.06,0,0,1,2.6,2.19.21.21,0,0,0,.39-.12,5.75,5.75,0,0,0-3.11-5.2c-2.13-1.09-5-1.16-6.61.75A.21.21,0,0,0,1319,2654Z" transform="translate(-1291.06 -2642.57)"/><path d="M1390.43,2709.16a8.41,8.41,0,0,1,3.11-7q3.11-2.47,9.44-2.47t9.57,2.66a8.68,8.68,0,0,1,3.24,6.37.2.2,0,0,1-.2.21h-7.22a.19.19,0,0,1-.19-.19q-.18-3.73-5.26-3.73c-3,0-4.54.92-4.54,2.74a2.37,2.37,0,0,0,1.32,2.05,9.92,9.92,0,0,0,3,1.2l4.31,1a29.8,29.8,0,0,1,4.15,1.21,9.32,9.32,0,0,1,4,2.68,7.26,7.26,0,0,1,1.29,4.6,9.07,9.07,0,0,1-1.07,4.45,8.13,8.13,0,0,1-2.88,3,14.18,14.18,0,0,1-4,1.68,19.4,19.4,0,0,1-4.73.56q-6.9,0-10.36-2.69a9.33,9.33,0,0,1-3.64-7.28.21.21,0,0,1,.21-.22h7.1a.18.18,0,0,1,.19.19,4.52,4.52,0,0,0,1.51,3.31q1.51,1.36,4.87,1.37a5.67,5.67,0,0,0,3.62-1,3.41,3.41,0,0,0,1.31-2.82,1.9,1.9,0,0,0-.33-1.1,3.5,3.5,0,0,0-1-.86,10.77,10.77,0,0,0-1.35-.7,13.94,13.94,0,0,0-1.79-.62c-.73-.2-1.36-.36-1.9-.48l-2-.44-1.9-.45a20.83,20.83,0,0,1-4.12-1.43,7.17,7.17,0,0,1-2.71-2.29A5.86,5.86,0,0,1,1390.43,2709.16Z" transform="translate(-1291.06 -2642.57)"/><path d="M1473.82,2710.89h-7.25a.21.21,0,0,1-.19-.15,8.27,8.27,0,0,0-2-4,5.23,5.23,0,0,0-3.7-1.21q-3.59,0-5,2.52a14.53,14.53,0,0,0-1.57,7.17,11.72,11.72,0,0,0,1.74,6.81,5.53,5.53,0,0,0,4.81,2.49,5.06,5.06,0,0,0,3.61-1.23,8.52,8.52,0,0,0,2.06-3.95.2.2,0,0,1,.19-.14h7.24a.2.2,0,0,1,.2.23,11.2,11.2,0,0,1-4.28,7.78,14.19,14.19,0,0,1-9.07,3,15.76,15.76,0,0,1-7.62-1.76,12.18,12.18,0,0,1-5-5.18,17.1,17.1,0,0,1-1.79-8.07q0-7.22,4-11.37a15.59,15.59,0,0,1,19.8-1.12,11.19,11.19,0,0,1,4,8A.21.21,0,0,1,1473.82,2710.89Z" transform="translate(-1291.06 -2642.57)"/><path d="M1502.85,2729.43h-7.61a.2.2,0,0,1-.2-.2v-2.94a.2.2,0,0,0-.36-.12,9.55,9.55,0,0,1-3.53,3,12.27,12.27,0,0,1-5.35,1.07c-3.29,0-5.83-.85-7.64-2.55s-2.72-4.14-2.72-7.31v-20a.2.2,0,0,1,.2-.2h7.61a.2.2,0,0,1,.2.2v18.39c0,3.55,1.71,5.32,5.15,5.32a6.74,6.74,0,0,0,4.68-1.59,5.46,5.46,0,0,0,1.76-4.23v-17.89a.2.2,0,0,1,.2-.2h7.61a.2.2,0,0,1,.2.2v28.78A.2.2,0,0,1,1502.85,2729.43Z" transform="translate(-1291.06 -2642.57)"/><path d="M1505.71,2700.25h7.61a.2.2,0,0,1,.2.2v4.29a.2.2,0,0,0,.37.1,10,10,0,0,1,1.81-2.52,8.61,8.61,0,0,1,2.94-2,9.52,9.52,0,0,1,3.45-.61c.33,0,.65,0,1,.05v7.11a.2.2,0,0,1-.23.19,16.22,16.22,0,0,0-2.24-.19q-7,0-7,6.78v15.54a.2.2,0,0,1-.2.2h-7.61a.2.2,0,0,1-.2-.2v-28.78A.2.2,0,0,1,1505.71,2700.25Z" transform="translate(-1291.06 -2642.57)"/><path d="M1549.08,2700.5v4.82a.19.19,0,0,1-.2.19h-4.08a.2.2,0,0,0-.2.2V2721a4.37,4.37,0,0,0,.53,2.61,2.68,2.68,0,0,0,2.1.64,13.22,13.22,0,0,0,1.62-.14.21.21,0,0,1,.23.2v5a.22.22,0,0,1-.14.2,15.91,15.91,0,0,1-4.51.57q-7.79,0-7.78-7v-17.33a.2.2,0,0,0-.2-.2h-3.58a.19.19,0,0,1-.2-.19v-4.82a.2.2,0,0,1,.2-.19h3.58a.2.2,0,0,0,.2-.2v-7.5a.19.19,0,0,1,.19-.2h7.56a.2.2,0,0,1,.2.2v7.5a.2.2,0,0,0,.2.2h4.08A.2.2,0,0,1,1549.08,2700.5Z" transform="translate(-1291.06 -2642.57)"/><path d="M1591.69,2700.25h7.61a.19.19,0,0,1,.19.2v4.29a.2.2,0,0,0,.38.1,9.77,9.77,0,0,1,1.81-2.52,8.42,8.42,0,0,1,2.94-2,9.47,9.47,0,0,1,3.44-.61,9.25,9.25,0,0,1,1,.05v7.11a.2.2,0,0,1-.23.19,16.09,16.09,0,0,0-2.23-.19q-7,0-7.06,6.78v15.54a.19.19,0,0,1-.19.2h-7.61a.2.2,0,0,1-.2-.2v-28.78A.2.2,0,0,1,1591.69,2700.25Z" transform="translate(-1291.06 -2642.57)"/><path d="M1623.28,2699.69q7.11,0,11.2,4.12t4.09,11.39q0,6.95-4.18,11t-11.06,4.06q-7,0-11.11-4.09t-4.12-11.2q0-7.07,4.12-11.17T1623.28,2699.69Zm0,5.82a6.48,6.48,0,0,0-3,.68,6.35,6.35,0,0,0-2.3,1.93,9.36,9.36,0,0,0-1.48,3,13.1,13.1,0,0,0-.54,3.84,12.35,12.35,0,0,0,.93,4.95,7.8,7.8,0,0,0,2.57,3.36,6.2,6.2,0,0,0,3.78,1.21,6.31,6.31,0,0,0,2.94-.7,6.61,6.61,0,0,0,2.3-1.93,9.83,9.83,0,0,0,1.48-3,12.18,12.18,0,0,0,.56-3.81,11.22,11.22,0,0,0-2-7A6.33,6.33,0,0,0,1623.33,2705.51Z" transform="translate(-1291.06 -2642.57)"/><path d="M1667.37,2729.43h-7.61a.2.2,0,0,1-.2-.2v-2.94a.19.19,0,0,0-.35-.12,9.65,9.65,0,0,1-3.54,3,12.19,12.19,0,0,1-5.34,1.07q-4.93,0-7.65-2.55t-2.71-7.31v-20a.19.19,0,0,1,.19-.2h7.61a.2.2,0,0,1,.2.2v18.39q0,5.32,5.15,5.32a6.72,6.72,0,0,0,4.68-1.59,5.43,5.43,0,0,0,1.76-4.23v-17.89a.2.2,0,0,1,.2-.2h7.61a.2.2,0,0,1,.2.2v28.78A.2.2,0,0,1,1667.37,2729.43Z" transform="translate(-1291.06 -2642.57)"/><path d="M1684.82,2700.5v4.82a.19.19,0,0,1-.2.19h-4.08a.2.2,0,0,0-.2.2V2721a4.44,4.44,0,0,0,.53,2.61,2.71,2.71,0,0,0,2.1.64,13.07,13.07,0,0,0,1.62-.14.21.21,0,0,1,.23.2v5a.22.22,0,0,1-.14.2,15.91,15.91,0,0,1-4.51.57q-7.79,0-7.78-7v-17.33a.2.2,0,0,0-.2-.2h-3.58a.19.19,0,0,1-.2-.19v-4.82a.2.2,0,0,1,.2-.19h3.58a.2.2,0,0,0,.2-.2v-7.5a.2.2,0,0,1,.2-.2h7.55a.2.2,0,0,1,.2.2v7.5a.2.2,0,0,0,.2.2h4.08A.2.2,0,0,1,1684.82,2700.5Z" transform="translate(-1291.06 -2642.57)"/><path d="M1725.45,2700.25h7.61a.2.2,0,0,1,.2.2v4.29a.2.2,0,0,0,.37.1,10,10,0,0,1,1.81-2.52,8.61,8.61,0,0,1,2.94-2,9.56,9.56,0,0,1,3.45-.61c.33,0,.65,0,1,.05v7.11a.2.2,0,0,1-.23.19,16.09,16.09,0,0,0-2.23-.19q-7.07,0-7.06,6.78v15.54a.2.2,0,0,1-.2.2h-7.61a.2.2,0,0,1-.2-.2v-28.78A.2.2,0,0,1,1725.45,2700.25Z" transform="translate(-1291.06 -2642.57)"/><path d="M1770.16,2716.94h-20.44a.21.21,0,0,0-.21.22q.48,7.07,7,7.06a7.35,7.35,0,0,0,4.14-1.18,4.89,4.89,0,0,0,2.14-2.44.19.19,0,0,1,.18-.13h6.59a.2.2,0,0,1,.19.26q-3,9.48-13.64,9.48a14.19,14.19,0,0,1-14.67-14.84q0-7,4.31-11.37a14.55,14.55,0,0,1,10.7-4.31,12.68,12.68,0,0,1,10,4.56,16.51,16.51,0,0,1,4,11.23,11.72,11.72,0,0,1-.08,1.28A.21.21,0,0,1,1770.16,2716.94Zm-14.11-11.26a7,7,0,0,0-3.53.87,5.74,5.74,0,0,0-2.24,2.24,7.62,7.62,0,0,0-.82,2.83.21.21,0,0,0,.2.22h12.59a.2.2,0,0,0,.2-.24,7.85,7.85,0,0,0-2-4.18A5.78,5.78,0,0,0,1756.05,2705.68Z" transform="translate(-1291.06 -2642.57)"/><path d="M1416.05,2778.12h-15.29a.18.18,0,0,0-.18.13l-2.71,7.8a.2.2,0,0,1-.19.13h-8.31a.19.19,0,0,1-.18-.26l14.63-39.59a.21.21,0,0,1,.19-.13h9.19a.19.19,0,0,1,.18.13l14.25,39.59a.19.19,0,0,1-.19.26h-8.36a.2.2,0,0,1-.19-.13l-2.65-7.8A.21.21,0,0,0,1416.05,2778.12Zm-2.3-7.15-5.16-14.82a.19.19,0,0,0-.37,0l-5.15,14.82a.19.19,0,0,0,.18.26h10.31A.2.2,0,0,0,1413.75,2771Z" transform="translate(-1291.06 -2642.57)"/><path d="M1461.84,2786.18h-8.54a.19.19,0,0,1-.19-.15l-6.71-26.41a.2.2,0,0,0-.38,0l-6.61,26.41a.19.19,0,0,1-.19.15h-8.54a.2.2,0,0,1-.19-.14L1420,2746.45a.2.2,0,0,1,.19-.25h8.66a.19.19,0,0,1,.19.15l6.27,26.2a.2.2,0,0,0,.39,0l6.21-26.2a.19.19,0,0,1,.19-.15h8.14a.2.2,0,0,1,.2.15l6.48,26.26a.2.2,0,0,0,.39,0l6-26.26a.19.19,0,0,1,.19-.15h8.66a.2.2,0,0,1,.19.25L1462,2786A.22.22,0,0,1,1461.84,2786.18Z" transform="translate(-1291.06 -2642.57)"/><path d="M1502.87,2758.35h-7.63a.19.19,0,0,1-.19-.18,5.8,5.8,0,0,0-2.39-4.47,10.69,10.69,0,0,0-6.33-1.62,9.1,9.1,0,0,0-5.24,1.34,4.55,4.55,0,0,0-1.56,5.52,3.57,3.57,0,0,0,1.28,1.37,9.3,9.3,0,0,0,2.38,1.07,36.16,36.16,0,0,0,3.87.89l6.49,1.18q5.78,1.07,8.4,3.69a9.91,9.91,0,0,1,2.64,7.34,11.34,11.34,0,0,1-4.54,9.55c-3,2.29-7.21,3.44-12.54,3.44s-9.49-1.14-12.44-3.41a12.67,12.67,0,0,1-4.8-9.64.21.21,0,0,1,.2-.22h8a.2.2,0,0,1,.19.19,6.37,6.37,0,0,0,.72,2.67,6.1,6.1,0,0,0,1.85,2.07,8.68,8.68,0,0,0,2.88,1.29,15.36,15.36,0,0,0,3.89.44,14,14,0,0,0,4.48-.64,6.35,6.35,0,0,0,2.92-1.85,4.75,4.75,0,0,0-.76-6.61,15.43,15.43,0,0,0-6.08-2.1l-5.82-1.12q-6.33-1.11-9-3.61t-2.68-7.14a10.8,10.8,0,0,1,4.14-9q4.14-3.23,11.59-3.22,9.13,0,13.44,4.53a10.18,10.18,0,0,1,2.24,3.62,13.93,13.93,0,0,1,.67,4.47A.2.2,0,0,1,1502.87,2758.35Z" transform="translate(-1291.06 -2642.57)"/><path d="M1514.61,2770.54V2786a.19.19,0,0,1-.2.19h-8.17a.19.19,0,0,1-.2-.19V2746.4a.2.2,0,0,1,.2-.2h22.09c3.55,0,6.23.92,8.06,2.74a10.83,10.83,0,0,1,3.14,8.07q0,7-6.54,9.67a.2.2,0,0,0,0,.37c.81.32,1.42.59,1.84.79a7,7,0,0,1,1.54,1.15,4.15,4.15,0,0,1,1.06,1.51,17,17,0,0,1,.53,2.38,22.74,22.74,0,0,1,.31,3.48c0,1.21,0,2.9,0,5.06a9.25,9.25,0,0,0,.45,2.89,3.47,3.47,0,0,0,.91,1.53.19.19,0,0,1-.13.34H1531a.21.21,0,0,1-.19-.11,9.15,9.15,0,0,1-.75-1.73,10.92,10.92,0,0,1-.36-2c-.08-.75-.11-1.76-.11-3,0-1.08,0-2,.05-2.69,0-.44.06-1,.06-1.56a6.68,6.68,0,0,0-.31-2.19,3.26,3.26,0,0,0-1-1.45,4,4,0,0,0-1.65-.84,9,9,0,0,0-2.41-.28h-9.6A.2.2,0,0,0,1514.61,2770.54Zm0-7.29a.2.2,0,0,0,.2.2h10.1c2.21,0,3.72-.34,4.54-1a5.49,5.49,0,0,0,1.51-4.31,4.89,4.89,0,0,0-1.51-4,4.4,4.4,0,0,0-1.74-.84,12.9,12.9,0,0,0-2.8-.23h-10.1a.2.2,0,0,0-.2.2Z" transform="translate(-1291.06 -2642.57)"/><path d="M1445.65,2717.05h-20.46a.21.21,0,0,0-.2.22,10.28,10.28,0,0,0,1.17,5,5.93,5.93,0,0,0,5.21,2.57,7.21,7.21,0,0,0,3.81-1,5.62,5.62,0,0,0,2.3-2.65.19.19,0,0,1,.17-.12h7.44a.21.21,0,0,1,.2.27,12.56,12.56,0,0,1-5.1,6.73,15.83,15.83,0,0,1-9.1,2.63q-6.55,0-10.33-4.11t-3.78-11.23q0-7.44,3.83-11.76t10.45-4.31a14.76,14.76,0,0,1,8.23,2.29,12.7,12.7,0,0,1,5,6.33,22.62,22.62,0,0,1,1.23,7.79A8.75,8.75,0,0,1,1445.65,2717.05Zm-20.33-5.15h11.87a.21.21,0,0,0,.2-.23,9.26,9.26,0,0,0-1.26-4,5.92,5.92,0,0,0-5-2.46q-5.17,0-6,6.49A.21.21,0,0,0,1425.32,2711.9Zm12.86-21.61-5.83,6.69a.16.16,0,0,1-.13.06h-4a.17.17,0,0,1-.15-.25l3.27-6.69a.19.19,0,0,1,.16-.09h6.55A.17.17,0,0,1,1438.18,2690.29Z" transform="translate(-1291.06 -2642.57)"/><path d="M1576.7,2717.05h-20.45a.21.21,0,0,0-.2.22c.12,2.38.51,4.05,1.17,5a5.93,5.93,0,0,0,5.2,2.57,7.16,7.16,0,0,0,3.81-1,5.51,5.51,0,0,0,2.3-2.65.2.2,0,0,1,.18-.12h7.44a.21.21,0,0,1,.19.27,12.46,12.46,0,0,1-5.1,6.73,15.78,15.78,0,0,1-9.1,2.63q-6.56,0-10.33-4.11t-3.78-11.23q0-7.44,3.84-11.76c2.55-2.87,6-4.31,10.44-4.31a14.73,14.73,0,0,1,8.23,2.29,12.59,12.59,0,0,1,5,6.33,22.62,22.62,0,0,1,1.23,7.79A7.65,7.65,0,0,1,1576.7,2717.05Zm-20.32-5.15h11.87a.21.21,0,0,0,.2-.23,9.12,9.12,0,0,0-1.27-4,5.9,5.9,0,0,0-5-2.46q-5.17,0-6,6.49A.2.2,0,0,0,1556.38,2711.9Zm12.85-21.61-5.82,6.69a.18.18,0,0,1-.13.06h-4a.18.18,0,0,1-.16-.25l3.28-6.69a.19.19,0,0,1,.15-.09h6.56A.17.17,0,0,1,1569.23,2690.29Z" transform="translate(-1291.06 -2642.57)"/><path d="M1723.8,2717.05h-20.46a.21.21,0,0,0-.2.22,10.28,10.28,0,0,0,1.17,5,5.93,5.93,0,0,0,5.21,2.57,7.15,7.15,0,0,0,3.8-1,5.58,5.58,0,0,0,2.31-2.65.19.19,0,0,1,.17-.12h7.44a.2.2,0,0,1,.19.27,12.49,12.49,0,0,1-5.09,6.73,15.83,15.83,0,0,1-9.1,2.63q-6.56,0-10.34-4.11t-3.78-11.23q0-7.44,3.84-11.76t10.44-4.31a14.79,14.79,0,0,1,8.24,2.29,12.7,12.7,0,0,1,5,6.33,22.62,22.62,0,0,1,1.23,7.79A8.75,8.75,0,0,1,1723.8,2717.05Zm-20.33-5.15h11.87a.21.21,0,0,0,.2-.23,9.26,9.26,0,0,0-1.26-4,5.93,5.93,0,0,0-5-2.46q-5.18,0-6,6.49A.21.21,0,0,0,1703.47,2711.9Zm-3.34-21.89h6.55a.19.19,0,0,1,.15.09l3.28,6.69a.18.18,0,0,1-.16.25h-4a.18.18,0,0,1-.13-.06l-5.82-6.69A.17.17,0,0,1,1700.13,2690Z" transform="translate(-1291.06 -2642.57)"/><path d="M1531.83,2690.49v6.44a.2.2,0,0,1-.2.2H1524a.2.2,0,0,1-.2-.2v-6.44a.2.2,0,0,1,.2-.2h7.61A.2.2,0,0,1,1531.83,2690.49Zm0,10v28.78a.2.2,0,0,1-.2.2H1524a.2.2,0,0,1-.2-.2v-28.78a.2.2,0,0,1,.2-.2h7.61A.2.2,0,0,1,1531.83,2700.45Z" transform="translate(-1291.06 -2642.57)"/><path d="M1693.72,2690.49v6.44a.19.19,0,0,1-.19.2h-7.62a.19.19,0,0,1-.19-.2v-6.44a.19.19,0,0,1,.19-.2h7.62A.19.19,0,0,1,1693.72,2690.49Zm0,10v28.78a.19.19,0,0,1-.19.2h-7.62a.19.19,0,0,1-.19-.2v-28.78a.19.19,0,0,1,.19-.2h7.62A.19.19,0,0,1,1693.72,2700.45Z" transform="translate(-1291.06 -2642.57)"/></svg>