<?xml version="1.0" encoding="utf-8"?>
<!-- Generator: Adobe Illustrator 21.0.0, SVG Export Plug-In . SVG Version: 6.00 Build 0)  -->
<svg version="1.1" id="Layer_1" xmlns="http://www.w3.org/2000/svg" xmlns:xlink="http://www.w3.org/1999/xlink" x="0px" y="0px"
	 width="280.9px" height="100.9px" viewBox="0 0 280.9 100.9" style="enable-background:new 0 0 280.9 100.9;" xml:space="preserve"
	>
<style type="text/css">
	.st0{fill:#E40521;}
	.st1{fill:#1D1D1B;}
</style>
<title>VSV_LOGO-BASELINE_FULL_CMYK</title>
<path class="st0" d="M140.4,14.4H18.4l28.5,48.4l24.5-41.7h41.1c3.7,0,6.7,3,6.7,6.7c0,1.2-0.3,2.4-0.9,3.4l-39,66.1
	c-1.2,2-3.4,3.3-5.8,3.3l0,0c-2.4,0-4.6-1.2-5.8-3.3l-9.2-15.5l7.8-13.1l7.2,12l27.3-46.2H79.2l-20,34l-6.8,11.5
	c-1.2,1.8-3.3,2.8-5.4,2.8c-2.4,0-4.6-1.2-5.8-3.3L0.9,11.1C-1,7.9,0.1,3.8,3.3,1.9C4.3,1.3,5.5,1,6.7,1h141.6L140.4,14.4z"/>
<path class="st0" d="M255.7,53.9h10.9L280.9,1h-10.6l-9.1,36.6l-9-36.6h-10.6C246.2,18.6,250.9,36.3,255.7,53.9 M228.5,38.8
	c0,4.4-3.2,6.4-7.6,6.4c-4.6,0-7.7-2.6-7.7-8.7h-10.3c0,11.3,7.4,18.3,18.1,18.3s18-6,18-16.1c0-18.9-25-12.7-25-23.2
	c0-4,2.5-6.1,6.9-6.1s7.2,2.6,7.2,8.3h10.2c0-10.9-7.1-17.7-17.3-17.7c-10.5,0-17.4,5.9-17.4,15.5C203.6,34.3,228.6,28.7,228.5,38.8
	 M175.1,53.9H186L200.3,1h-10.6l-9.1,36.6l-9-36.6h-10.6C165.6,18.6,170.3,36.3,175.1,53.9"/>
<path class="st1" d="M178.3,70.7v-0.5c0-4.2-2.5-6.5-6.3-6.5h-5.7v18.6h2.7v-5.4h2.8l3.5,5.4h3l-4-5.9
	C176.8,75.7,178.5,73.3,178.3,70.7z M175.7,70.7c0,2.7-1.7,3.8-4,3.8H169v-8.3h2.8c2.3,0,4,1,4,3.9L175.7,70.7z"/>
<path class="st1" d="M143.4,63.7h-6v18.6h6c3.7,0,6.3-2.4,6.3-6.9v-4.8C149.7,66,147.1,63.7,143.4,63.7z M147.1,74.7
	c0,3.9-1.7,5-4,5H140V66.2h3.1c2.3,0,4,1.1,4,5V74.7z"/>
<path class="st1" d="M117.7,82.2h2.6V63.7h-2.6V82.2z"/>
<polygon class="st1" points="269.2,74 274.9,74 274.9,71.8 269.2,71.8 269.2,66.2 277.1,66.2 277.1,63.7 266.6,63.7 266.6,82.2 
	277.1,82.2 277.1,79.7 269.2,79.7 "/>
<polygon class="st1" points="254.7,74 260.4,74 260.4,71.8 254.7,71.8 254.7,66.2 262.6,66.2 262.6,63.7 252.1,63.7 252.1,82.2 
	262.6,82.2 262.6,79.7 254.7,79.7 "/>
<polygon class="st1" points="241.3,79 245.6,69.3 245.6,82.2 248.2,82.2 248.2,63.7 245.7,63.7 240.4,75.7 235.2,63.7 232.6,63.7 
	232.6,82.2 235.2,82.2 235.2,69.4 239.5,79 "/>
<polygon class="st1" points="220.8,82.2 220.8,63.7 218.1,63.7 218.1,77.1 210.6,63.7 208.2,63.7 208.2,82.2 210.8,82.2 210.8,68.9 
	218.3,82.2 "/>
<polygon class="st1" points="197.7,74 203.4,74 203.4,71.8 197.7,71.8 197.7,66.2 205.6,66.2 205.6,63.7 195.1,63.7 195.1,82.2 
	205.6,82.2 205.6,79.7 197.7,79.7 "/>
<polygon class="st1" points="183.7,74 189.4,74 189.4,71.8 183.7,71.8 183.7,66.2 191.5,66.2 191.5,63.7 181.1,63.7 181.1,82.2 
	191.5,82.2 191.5,79.7 183.7,79.7 "/>
<polygon class="st1" points="155.2,74 160.9,74 160.9,71.8 155.2,71.8 155.2,66.2 163,66.2 163,63.7 152.6,63.7 152.6,82.2 
	163,82.2 163,79.7 155.2,79.7 "/>
<polygon class="st1" points="126.5,74 132.2,74 132.2,71.8 126.5,71.8 126.5,66.2 134.3,66.2 134.3,63.7 123.9,63.7 123.9,82.2 
	134.3,82.2 134.3,79.7 126.5,79.7 "/>
<path class="st0" d="M122.1,100.8l-4.4-12.8h1.1l3.8,11.2l3.8-11.2h1.1l-4.4,12.8H122.1z"/>
<path class="st0" d="M128.3,96.4v-4.2c-0.1-2.4,1.7-4.4,4.1-4.5c2.4-0.1,4.4,1.7,4.5,4.1c0,0.1,0,0.3,0,0.4v4.2
	c0.1,2.4-1.7,4.4-4.1,4.5s-4.4-1.7-4.5-4.1C128.3,96.7,128.3,96.6,128.3,96.4z M135.8,96.4v-4.3c0.1-1.8-1.2-3.3-3-3.5
	c-1.8-0.1-3.3,1.2-3.5,3c0,0.2,0,0.3,0,0.5v4.3c-0.1,1.8,1.2,3.3,3,3.5c1.8,0.1,3.3-1.2,3.5-3C135.8,96.8,135.8,96.7,135.8,96.4
	L135.8,96.4z"/>
<path class="st0" d="M138.6,96.4v-4.2c-0.1-2.4,1.7-4.4,4.1-4.5c2.4-0.1,4.4,1.7,4.5,4.1c0,0.1,0,0.3,0,0.4v4.2
	c0.1,2.4-1.7,4.4-4.1,4.5c-2.4,0.1-4.4-1.7-4.5-4.1C138.6,96.7,138.6,96.6,138.6,96.4z M146.1,96.4v-4.3c0.1-1.8-1.2-3.3-3-3.5
	c-1.8-0.1-3.3,1.2-3.5,3c0,0.2,0,0.3,0,0.5v4.3c-0.1,1.8,1.2,3.3,3,3.5c1.8,0.1,3.3-1.2,3.5-3C146.1,96.8,146.1,96.7,146.1,96.4
	L146.1,96.4z"/>
<path class="st0" d="M150.4,96.7v4.1h-1.1V87.9h3.7c2.2-0.2,4.1,1.4,4.3,3.6c0,0.2,0,0.4,0,0.7v0.5c0.1,2-1.4,3.7-3.4,3.9l3.3,4.3
	H156l-3.1-4.1H150.4z M150.4,95.7h2.6c1.9,0,3.3-1,3.3-3v-0.5c0-2.2-1.4-3.1-3.3-3.1h-2.6V95.7z"/>
<path class="st0" d="M166.1,100.8l-4.4-12.8h1.1l3.8,11.2l3.8-11.2h1.1l-4.4,12.8H166.1z"/>
<path class="st0" d="M174,99.7h6v1h-7V87.9h7.1V89h-6v4.8h4.3v1H174V99.7z"/>
<path class="st0" d="M183.1,87.9v12.8h-1.1V87.9H183.1z"/>
<path class="st0" d="M186.6,87.9v11.8h5.6v1h-6.7V87.9H186.6z"/>
<path class="st0" d="M194.9,87.9v12.8h-1.1V87.9H194.9z"/>
<path class="st0" d="M204.5,92.1c0.1-1.7-1.2-3.2-2.9-3.3c-0.1,0-0.2,0-0.3,0c-2,0-3.2,1.3-3.2,3.7v4.1c-0.1,1.8,1.3,3.3,3,3.4
	c1.8,0.1,3.3-1.3,3.4-3c0-0.1,0-0.2,0-0.4v-0.7h-3.2v-1h4.3v1.7c0.1,2.4-1.7,4.4-4.1,4.5s-4.4-1.7-4.5-4.1c0-0.1,0-0.3,0-0.4v-4.3
	c-0.1-2.4,1.7-4.4,4-4.5c2.4-0.1,4.4,1.7,4.5,4c0,0.1,0,0.3,0,0.4L204.5,92.1z"/>
<path class="st0" d="M214.6,100.8l-4.4-12.8h1.1l3.8,11.2l3.9-11.2h1.1l-4.4,12.8L214.6,100.8z"/>
<path class="st0" d="M222.6,99.7h6v1h-7.1V87.9h7.1V89h-6v4.8h4.3v1h-4.3V99.7z"/>
<path class="st0" d="M231.7,96.7v4.1h-1.1V87.9h3.7c2.2-0.2,4.1,1.4,4.3,3.6c0,0.2,0,0.4,0,0.7v0.5c0.1,2-1.4,3.7-3.4,3.9l3.3,4.3
	h-1.3l-3.1-4.1H231.7z M231.7,95.7h2.6c1.9,0,3.3-1,3.3-3v-0.5c0-2.2-1.4-3.1-3.3-3.1h-2.6V95.7z"/>
<path class="st0" d="M241.5,100.8h-1.1V87.9h1.1v5.8h1.3l4.6-5.8h1.3l-5,6.3l5,6.5h-1.3l-4.6-6h-1.3V100.8z"/>
<path class="st0" d="M251.3,99.7h6v1h-7.1V87.9h7.1V89h-6v4.8h4.3v1h-4.3V99.7z"/>
<path class="st0" d="M260.4,99.7h6v1h-7.1V87.9h7.1V89h-6v4.8h4.3v1h-4.3V99.7z"/>
<path class="st0" d="M269.5,96.7v4.1h-1.1V87.9h3.7c2.2-0.2,4.1,1.4,4.3,3.6c0,0.2,0,0.4,0,0.7v0.5c0.1,2-1.4,3.7-3.4,3.9l3.3,4.3
	h-1.3l-3.1-4.1H269.5z M269.5,95.7h2.6c1.9,0,3.3-1,3.3-3v-0.5c0-2.2-1.4-3.1-3.3-3.1h-2.6V95.7z"/>
</svg>
