<?xml version="1.0" encoding="utf-8"?>
<!-- Generator: Adobe Illustrator 25.4.1, SVG Export Plug-In . SVG Version: 6.00 Build 0)  -->
<svg version="1.1" id="Layer_1" xmlns="http://www.w3.org/2000/svg" xmlns:xlink="http://www.w3.org/1999/xlink" x="0px" y="0px"
	 viewBox="0 0 283.5 283.5" style="enable-background:new 0 0 283.5 283.5;" xml:space="preserve">
<style type="text/css">
	.st0{fill:#00008F;}
	.st1{fill:#FF1721;}
	.st2{fill:#FFFFFF;}
</style>
<g>
	<rect id="base" x="0" y="0" class="st0" width="283.5" height="283.5"/>
	<polygon id="switch" class="st1" points="175.7,140 283.5,0 267.5,0 159.4,140 	"/>
	<path id="axa" class="st2" d="M216.6,202.5c4.9,13.8,15.1,49.8,19.2,52.7H209c0,0-0.1-5.3-1.3-9.4c-1.2-4.1-10.8-35.2-10.8-35.2
		h-42.5l-6.7,9.5c0,0,8,25.1,8.5,26.3c0.9,2.2,4.7,8.9,4.7,8.9h-25.6c0,0-0.7-3.8-0.9-5.4c-0.2-1.3-2.4-8.3-2.4-8.3
		s-5.8,6.4-7.4,9.3c-1.6,2.9-2.3,4.5-2.3,4.5h-20c0,0-0.7-3.8-0.9-5.4c-0.2-1.3-2.6-8.9-2.6-8.9s-5.6,6.8-7.2,9.8
		c-1.6,2.9-2.3,4.6-2.3,4.6H69.5c0,0,5.6-5.3,7.6-7.6c3.3-3.9,15.6-20,15.6-20l-4.9-17.1H45.6c0,0-24,31.6-25,32.5
		c-1,1-8,11-8.1,12.1H0v-7.9c0.2-0.2,0.4-0.4,0.5-0.5c0.4-0.3,18.2-22.4,34.6-44.2c14.7-19,28.5-37.5,29.7-39.3
		c2.9-4.3,7.2-13.5,7.2-13.5h21.8c0,0,0.7,8.5,1.3,10.5c0.6,1.8,13.8,45.4,14.2,45.8l7.3-9.4L104,158.1c0,0-2.9-7.3-3.9-8.4h25.4
		c0,0-0.2,3.7,0.8,6.9c1,3.2,6.5,22.9,6.5,22.9s17.4-21.8,18.4-23.3c1.9-2.6,2.1-6.5,2.1-6.5h21.2c0,0-3.9,2.8-10.7,11.4
		c-2.3,2.9-24.7,31.3-24.7,31.3s2,6.7,2.9,10c0.3,1,0.4,1.6,0.4,1.7c0,0,0.5-0.6,1.3-1.7c5.8-7.3,32.1-41.8,33.6-44.7
		c1.3-2.4,3.2-5.1,4.3-8h20.7c0,0,0.5,6.2,1.1,7.9L216.6,202.5z M185.1,169.8c-3,6.5-20.9,28.3-20.9,28.3h28.3
		c0,0-5.5-16.9-6.4-20.7c-0.8-3-0.6-6.9-0.6-7.4C185.5,169.7,185.5,169.1,185.1,169.8z M76.3,169.8c-3,6.5-20.9,28.3-20.9,28.3h28.3
		c0,0-5.5-16.9-6.4-20.7c-0.8-3-0.6-6.9-0.6-7.4C76.7,169.7,76.7,169.1,76.3,169.8z M119,235.8l7.8-10.7c-0.7-0.8-5.1-14.1-5.1-14.1
		l-7.5,9.8L119,235.8z"/>
</g>
</svg>
