<?xml version="1.0" standalone="no"?>
<!DOCTYPE svg PUBLIC "-//W3C//DTD SVG 20010904//EN"
 "http://www.w3.org/TR/2001/REC-SVG-20010904/DTD/svg10.dtd">
<svg version="1.0" xmlns="http://www.w3.org/2000/svg"
 width="1084.000000pt" height="1084.000000pt" viewBox="0 0 1084.000000 1084.000000"
 preserveAspectRatio="xMidYMid meet">
<metadata>
Created by potrace 1.11, written by Peter Selinger 2001-2013
</metadata>
<g transform="translate(0.000000,1084.000000) scale(0.100000,-0.100000)"
fill="#000000" stroke="none">
<path d="M9081 7046 c-44 -18 -157 -126 -782 -746 -401 -399 -739 -739 -749
-755 -35 -57 -41 -145 -15 -211 12 -29 207 -229 759 -779 807 -803 776 -776
882 -771 27 2 67 12 89 23 59 31 1510 1477 1530 1525 21 53 19 143 -5 192 -27
57 -1474 1494 -1529 1518 -60 27 -122 28 -180 4z m800 -896 c385 -382 705
-704 711 -714 10 -18 -69 -99 -707 -733 -610 -605 -720 -711 -733 -700 -47 38
-1422 1413 -1422 1422 0 16 1423 1425 1437 1423 7 -2 328 -316 714 -698z"/>
<path d="M5369 6946 c-2 -2 -42 -6 -89 -9 -91 -7 -109 -10 -210 -32 -171 -38
-350 -115 -500 -216 -107 -72 -137 -96 -231 -189 -242 -238 -398 -555 -436
-890 -14 -119 -8 -348 11 -455 93 -508 438 -938 911 -1134 87 -37 213 -76 271
-85 20 -4 46 -8 58 -11 59 -13 91 -16 211 -19 188 -5 307 10 475 60 143 43
327 132 445 215 100 71 267 232 336 324 58 76 135 204 167 275 29 65 45 103
47 110 0 3 13 41 27 85 31 94 50 182 63 295 8 72 6 292 -4 347 -6 32 -13 74
-16 93 -23 139 -96 335 -177 475 -220 377 -622 664 -1028 731 -19 3 -37 7 -40
9 -11 7 -285 26 -291 21z m261 -230 c289 -59 502 -169 701 -366 168 -166 279
-355 344 -581 8 -31 17 -65 19 -75 39 -206 36 -375 -9 -569 -102 -444 -462
-824 -905 -956 -210 -63 -449 -71 -657 -23 -527 122 -929 557 -1008 1089 -22
147 -10 351 31 520 117 482 565 890 1054 960 25 4 47 9 49 11 7 6 342 -3 381
-10z"/>
<path d="M1595 6882 c-56 -27 -98 -64 -120 -109 -11 -21 -29 -54 -41 -73 -11
-19 -74 -127 -139 -240 -110 -191 -511 -882 -630 -1085 -89 -152 -416 -717
-441 -762 -24 -43 -132 -226 -175 -298 -20 -33 -24 -53 -24 -115 1 -88 22
-138 81 -190 75 -65 -37 -61 1573 -60 807 0 1481 4 1497 9 73 21 139 71 168
127 23 47 26 134 7 191 -9 27 -42 91 -72 143 -64 109 -337 578 -366 630 -11
19 -78 134 -148 255 -70 121 -133 229 -139 240 -6 11 -16 27 -22 35 -6 8 -25
40 -41 70 -17 30 -77 136 -135 235 -362 623 -468 807 -498 860 -57 106 -117
146 -225 152 -54 3 -79 -1 -110 -15z m125 -204 c9 -11 153 -257 264 -453 13
-22 70 -121 128 -220 105 -179 409 -704 686 -1180 80 -137 168 -288 195 -335
27 -47 61 -105 75 -130 14 -25 36 -62 49 -83 38 -61 44 -84 27 -102 -14 -13
-171 -15 -1456 -13 -1292 3 -1442 5 -1451 19 -7 12 24 73 135 265 80 137 180
310 223 384 43 74 86 149 96 165 10 17 32 55 49 85 17 30 35 62 40 70 5 8 24
40 41 70 34 58 61 105 264 455 486 837 565 975 565 984 0 11 29 30 47 31 7 0
17 -6 23 -12z"/>
</g>
</svg>
