<svg id="Layer_1" data-name="Layer 1" xmlns="http://www.w3.org/2000/svg" width="260" height="260" viewBox="0 0 260 260">
    <defs>
        <style>.cls-1{fill:#fbb800;}.cls-2{fill:#4cc0df;}.cls-3{fill:#e40521;}</style>
    </defs>
    <title>favicon</title>
    <path class="cls-1"
          d="M219.962,169.362a5.45,5.45,0,0,1-3.874-1.6l-34.054-33.938a5.476,5.476,0,0,1,0-7.726l34.063-33.862a5.519,5.519,0,0,1,7.746,0L257.9,126.106a5.476,5.476,0,0,1,.007,7.728l-34.062,33.879A5.451,5.451,0,0,1,220,169.362h-.037Zm.005-73.724a.5.5,0,0,0-.352.145l-34.053,33.852a.466.466,0,0,0,.006.651l34.051,33.934a.487.487,0,0,0,.328.142.476.476,0,0,0,.32-.144l34.1-33.922a.465.465,0,0,0-.007-.651L220.315,95.78A.494.494,0,0,0,219.967,95.638Z"/>
    <path class="cls-2"
          d="M129.75,166.472h-.065a36.637,36.637,0,1,1,.065,0Zm-.045-5h.045a31.472,31.472,0,0,0,.3-62.943h-.174a31.472,31.472,0,0,0-.174,62.944Z"/>
    <path class="cls-3"
          d="M6.536,165.44a6.037,6.037,0,0,1-4.647-9.889l33.1-57.083a6.071,6.071,0,0,1,11.343,0l33.213,57.19a6.714,6.714,0,0,1,.639,6.493l-.116.265-.173.232a6.78,6.78,0,0,1-5.978,2.679H7.706A6.088,6.088,0,0,1,6.536,165.44Zm-.472-5.115,68.247.015a1.745,1.745,0,0,0,1.384-.467,1.7,1.7,0,0,0-.276-1.393l-.14-.214L41.761,100.551l-.082-.252a1.07,1.07,0,0,0-2.035,0l-.082.25-.132.228L5.958,158.5l-.185.2a1.036,1.036,0,0,0,.291,1.624Z"/>
</svg>