<svg id="Layer_1" data-name="Layer 1" xmlns="http://www.w3.org/2000/svg" width="479.66" height="160.002" viewBox="0 0 479.66 160.002"><defs><style>.cls-1{fill:#cedc00;}.cls-2{fill:#fff;}</style></defs><title>gvq_partner-joe</title><circle class="cls-1" cx="239.844" cy="80.002" r="42"/><path class="cls-2" d="M239.844,0a80,80,0,1,0,80,80A80,80,0,0,0,239.844,0Zm0,121.6a41.6,41.6,0,1,1,41.6-41.6A41.6,41.6,0,0,1,239.844,121.6Z"/><path class="cls-2" d="M161.62,16.67V2.768h-40V80a41.689,41.689,0,0,1-83.092,4.766H0a80,80,0,0,0,148.1,36.966A100.872,100.872,0,0,1,161.62,16.67Z"/><path class="cls-2" d="M441.966,84.768a42.422,42.422,0,0,1-56.215,35.217l82.1-82.1a79.976,79.976,0,0,0-136.252.39,100.751,100.751,0,0,1,0,83.445A79.97,79.97,0,0,0,479.66,84.768ZM357.444,80a42.37,42.37,0,0,1,56.482-39.981L359.853,94.1A42.3,42.3,0,0,1,357.444,80Z"/></svg>