<svg id="Calque_1" data-name="Calque 1" xmlns="http://www.w3.org/2000/svg" xmlns:xlink="http://www.w3.org/1999/xlink" width="283.614mm" height="228.129mm" viewBox="0 0 803.944 646.664"><defs><style>.cls-1,.cls-4,.cls-5,.cls-6{fill:none;}.cls-2,.cls-7{fill:#3a5b8e;}.cls-3{clip-path:url(#clip-path);}.cls-4,.cls-6,.cls-7{font-size:103.775px;}.cls-4,.cls-5,.cls-6{stroke:#fff;stroke-miterlimit:7.036;}.cls-4{stroke-width:0;letter-spacing:0.025em;}.cls-4,.cls-5,.cls-6,.cls-7{font-family:MyriadPro-Regular, Myriad Pro;}.cls-5{font-size:79.151px;letter-spacing:0.02em;}.cls-5,.cls-6{stroke-width:5.72px;}</style><clipPath id="clip-path" transform="translate(-21.374 -38.976)"><rect class="cls-1" width="850.274" height="708.66"/></clipPath></defs><title>gvq_partner_uwe</title><path class="cls-2" d="M545.774,325.839c0-22.47-10.352-57.311-50.494-57.311-35.6,0-57.311,28.782-57.311,65.642s22.47,61.855,60.088,61.855c19.44,0,33.073-4.293,40.9-7.828l-4.039-15.9c-8.079,3.533-17.926,6.313-33.831,6.313-22.47,0-41.4-12.372-41.91-42.416h85.839a54.148,54.148,0,0,0,.758-10.351Zm-21.46-5.555H459.429c1.768-15.4,11.361-35.85,34.084-35.85,24.994,0,31.053,21.964,30.8,35.85ZM367.943,499.914,476.866,164.687,290.255,104.053l-48.3,148.641L93.341,204.405,32.715,390.992,367.943,499.914ZM239.712,393.248H220.019L218.757,373.3h-.5c-5.555,9.845-18.683,22.722-40.4,22.722-19.188,0-42.163-10.857-42.163-53.524V271.053h22.218v67.409c0,23.228,7.321,39.134,27.266,39.134,14.9,0,25.247-10.354,29.287-20.451a30.473,30.473,0,0,0,2.019-11.361V271.053H238.7v88.615c0,12.877.252,23.986,1.01,33.58Zm139.866,0L360.9,334.927a407.282,407.282,0,0,1-10.857-40.142h-.5a361.471,361.471,0,0,1-11.108,40.395l-19.693,58.068h-20.2L261.675,271.053H284.4l16.411,62.107c3.282,13.633,6.564,26.256,8.836,38.879h.758c2.777-12.371,6.816-25.5,10.856-38.626l19.945-62.36h18.683l18.935,61.1c4.544,14.643,8.079,27.518,10.856,39.889h.757c2.02-12.371,5.3-25.246,9.342-39.636l17.42-61.35h21.965l-39.385,122.2ZM232.159,233.425,275.728,99.333l-96.545-31.37-13.071,40.228-37.546-12.2-30.5,93.864,134.091,43.569ZM155.719,89.989,168.354,51.1,131.032,38.976,118.4,77.863l37.322,12.126Z" transform="translate(-21.374 -38.976)"/><g class="cls-3"><text class="cls-4" transform="translate(0 535.861)">union wallonne</text></g><path class="cls-2" d="M70.978,561.139c0,5.188.1,9.755.415,13.7H63.3l-.519-8.2h-.208a18.9,18.9,0,0,1-16.6,9.339c-7.886,0-17.33-4.358-17.33-22V524.609H37.77v27.813c0,9.547,2.906,15.981,11.208,15.981a13.2,13.2,0,0,0,12.038-8.3,13.35,13.35,0,0,0,.83-4.67V524.609h9.132Z" transform="translate(-21.374 -38.976)"/><path class="cls-2" d="M88.723,538.2c0-5.188-.1-9.443-.415-13.595H96.4l.519,8.3h.208a18.47,18.47,0,0,1,16.6-9.443c6.953,0,17.746,4.15,17.746,21.377v29.991h-9.133V545.884c0-8.1-3.01-14.84-11.623-14.84a12.975,12.975,0,0,0-12.245,9.34,13.131,13.131,0,0,0-.623,4.255v30.2H88.723Z" transform="translate(-21.374 -38.976)"/><path class="cls-2" d="M159.082,510.5c.1,3.113-2.18,5.605-5.812,5.605a5.431,5.431,0,0,1-5.5-5.605,5.564,5.564,0,0,1,5.708-5.707A5.42,5.42,0,0,1,159.082,510.5Zm-10.17,64.341V524.609h9.132v50.228Z" transform="translate(-21.374 -38.976)"/><path class="cls-2" d="M221.242,549.309c0,18.575-12.867,26.669-25.01,26.669-13.594,0-24.075-9.962-24.075-25.839,0-16.812,11-26.67,24.906-26.67C211.488,523.469,221.242,533.949,221.242,549.309Zm-39.849.518c0,11,6.33,19.3,15.255,19.3,8.717,0,15.255-8.2,15.255-19.51,0-8.509-4.255-19.3-15.048-19.3S181.393,540.28,181.393,549.827Z" transform="translate(-21.374 -38.976)"/><path class="cls-2" d="M235.355,538.2c0-5.188-.1-9.443-.415-13.595h8.095l.519,8.3h.207a18.47,18.47,0,0,1,16.6-9.443c6.953,0,17.746,4.15,17.746,21.377v29.991h-9.132V545.884c0-8.1-3.01-14.84-11.624-14.84a12.975,12.975,0,0,0-12.245,9.34,13.132,13.132,0,0,0-.622,4.255v30.2h-9.133Z" transform="translate(-21.374 -38.976)"/><path class="cls-2" d="M323.77,524.609l6.641,25.53c1.453,5.6,2.8,10.792,3.736,15.981h.312c1.141-5.085,2.8-10.481,4.462-15.878l8.2-25.633H354.8l7.784,25.115c1.868,6.018,3.32,11.311,4.462,16.4h.311a151.32,151.32,0,0,1,3.84-16.293l7.16-25.218h9.029L371.2,574.837h-8.3l-7.68-23.972a167.6,167.6,0,0,1-4.462-16.5h-.208a148.589,148.589,0,0,1-4.565,16.605l-8.1,23.868h-8.3L314.43,524.609Z" transform="translate(-21.374 -38.976)"/><path class="cls-2" d="M426.921,574.837l-.726-6.33h-.312a18.7,18.7,0,0,1-15.358,7.471c-10.17,0-15.358-7.16-15.358-14.424,0-12.142,10.792-18.784,30.2-18.68v-1.037c0-4.151-1.142-11.623-11.415-11.623a25.034,25.034,0,0,0-13.076,3.735l-2.076-6.018a31.165,31.165,0,0,1,16.5-4.462c15.359,0,19.094,10.48,19.094,20.547V562.8a70.8,70.8,0,0,0,.83,12.038ZM425.572,549.2C415.61,549,404.3,550.761,404.3,560.516c0,5.915,3.944,8.717,8.614,8.717a12.5,12.5,0,0,0,12.142-8.406,9.535,9.535,0,0,0,.518-2.9Z" transform="translate(-21.374 -38.976)"/><path class="cls-2" d="M451.722,501.156h9.133v73.681h-9.133Z" transform="translate(-21.374 -38.976)"/><path class="cls-2" d="M478.807,501.156h9.133v73.681h-9.133Z" transform="translate(-21.374 -38.976)"/><path class="cls-2" d="M551.345,549.309c0,18.575-12.868,26.669-25.01,26.669-13.594,0-24.076-9.962-24.076-25.839,0-16.812,11-26.67,24.907-26.67C541.59,523.469,551.345,533.949,551.345,549.309Zm-39.849.518c0,11,6.33,19.3,15.255,19.3,8.716,0,15.254-8.2,15.254-19.51,0-8.509-4.254-19.3-15.047-19.3S511.5,540.28,511.5,549.827Z" transform="translate(-21.374 -38.976)"/><path class="cls-2" d="M565.458,538.2c0-5.188-.1-9.443-.416-13.595h8.095l.519,8.3h.208a18.468,18.468,0,0,1,16.6-9.443c6.953,0,17.746,4.15,17.746,21.377v29.991h-9.132V545.884c0-8.1-3.009-14.84-11.622-14.84a12.976,12.976,0,0,0-12.247,9.34,13.132,13.132,0,0,0-.622,4.255v30.2h-9.132Z" transform="translate(-21.374 -38.976)"/><path class="cls-2" d="M625.647,538.2c0-5.188-.1-9.443-.415-13.595h8.1l.518,8.3h.208a18.468,18.468,0,0,1,16.6-9.443c6.953,0,17.746,4.15,17.746,21.377v29.991H659.27V545.884c0-8.1-3.009-14.84-11.622-14.84a12.975,12.975,0,0,0-12.246,9.34,13.132,13.132,0,0,0-.622,4.255v30.2h-9.133Z" transform="translate(-21.374 -38.976)"/><path class="cls-2" d="M690.92,551.384c.208,12.349,8.1,17.434,17.227,17.434a33.024,33.024,0,0,0,13.906-2.594l1.557,6.538c-3.217,1.452-8.717,3.113-16.708,3.113-15.462,0-24.7-10.17-24.7-25.321s8.924-27.085,23.556-27.085c16.4,0,20.756,14.424,20.756,23.66a34.617,34.617,0,0,1-.311,4.255Zm26.775-6.538c.1-5.812-2.387-14.84-12.66-14.84-9.237,0-13.284,8.51-14.01,14.84Z" transform="translate(-21.374 -38.976)"/><g class="cls-3"><text class="cls-5" transform="translate(127.436 617.872)">des</text></g><path class="cls-2" d="M187.67,600.653v46.3c0,3.4.08,7.281.317,9.894h-6.253l-.316-6.649h-.159c-2.136,4.275-6.806,7.52-13.059,7.52-9.26,0-16.383-7.836-16.383-19.471-.08-12.743,7.835-20.578,17.175-20.578,5.857,0,9.814,2.769,11.555,5.856h.159V600.653Zm-6.964,33.48a12.317,12.317,0,0,0-.317-2.929,10.243,10.243,0,0,0-10.052-8.073c-7.2,0-11.476,6.332-11.476,14.8,0,7.755,3.8,14.167,11.318,14.167a10.47,10.47,0,0,0,10.21-8.311,12.113,12.113,0,0,0,.317-3.008Z" transform="translate(-21.374 -38.976)"/><path class="cls-2" d="M204.688,638.96c.159,9.419,6.174,13.3,13.139,13.3a25.174,25.174,0,0,0,10.606-1.979l1.187,4.987a31.027,31.027,0,0,1-12.743,2.374c-11.793,0-18.836-7.756-18.836-19.312s6.806-20.657,17.966-20.657c12.5,0,15.829,11,15.829,18.045a26.306,26.306,0,0,1-.237,3.245Zm20.421-4.986c.079-4.432-1.821-11.318-9.656-11.318-7.044,0-10.131,6.49-10.685,11.318Z" transform="translate(-21.374 -38.976)"/><path class="cls-2" d="M241.1,649.725a18.254,18.254,0,0,0,9.181,2.769c5.065,0,7.439-2.532,7.439-5.7,0-3.324-1.978-5.145-7.123-7.044-6.886-2.454-10.131-6.253-10.131-10.844,0-6.173,4.987-11.238,13.218-11.238a19.119,19.119,0,0,1,9.419,2.374l-1.742,5.065a14.918,14.918,0,0,0-7.836-2.215c-4.115,0-6.41,2.374-6.41,5.223,0,3.166,2.295,4.591,7.281,6.49,6.648,2.533,10.052,5.857,10.052,11.556,0,6.728-5.224,11.476-14.326,11.476a21.845,21.845,0,0,1-10.764-2.612Z" transform="translate(-21.374 -38.976)"/><g class="cls-3"><text class="cls-6" transform="translate(247.82 617.861)"> </text></g><text class="cls-7" transform="translate(247.82 617.861)"> </text><path class="cls-2" d="M309.675,635.11c.34,9.157,7.425,13.158,15.6,13.158a38.45,38.45,0,0,0,13.943-2.34l1.891,8.793a45.714,45.714,0,0,1-17.656,3.206c-16.4,0-26.01-10.135-26.01-25.616,0-13.943,8.458-27.136,24.707-27.136,16.422,0,21.768,13.5,21.768,24.571a26.763,26.763,0,0,1-.45,5.364Zm22.217-8.9c.056-4.679-1.978-12.311-10.536-12.311-7.862,0-11.134,7.142-11.7,12.311Z" transform="translate(-21.374 -38.976)"/><path class="cls-2" d="M357.321,621.34c0-5.836-.185-10.649-.415-15.024h11.162l.629,7.585h.3a18.4,18.4,0,0,1,16.1-8.726c8.808,0,17.959,5.672,17.959,21.653v30.009H390.268v-28.5c0-7.249-2.661-12.771-9.639-12.771a10.6,10.6,0,0,0-9.938,7.5,12.528,12.528,0,0,0-.586,4.052v29.729H357.321Z" transform="translate(-21.374 -38.976)"/><path class="cls-2" d="M434.388,591.848v14.468h12.154v9.517H434.388v22.294c0,6.183,1.647,9.325,6.533,9.325a19.236,19.236,0,0,0,4.962-.557l.258,9.72a28.649,28.649,0,0,1-9.3,1.312c-4.695,0-8.605-1.6-10.979-4.163-2.744-2.9-4-7.551-4-14.171v-23.76h-7.21v-9.517h7.21V594.873Z" transform="translate(-21.374 -38.976)"/><path class="cls-2" d="M459.292,622.56c0-6.769-.141-11.743-.416-16.244h11.063l.474,9.6h.359c2.489-7.117,8.379-10.743,13.829-10.743a12.159,12.159,0,0,1,3,.277v12.03a17.343,17.343,0,0,0-3.745-.362c-6.085,0-10.31,3.874-11.451,9.665a21.113,21.113,0,0,0-.327,3.851v26.2H459.292Z" transform="translate(-21.374 -38.976)"/><path class="cls-2" d="M508.358,635.11c.339,9.157,7.425,13.158,15.6,13.158a38.442,38.442,0,0,0,13.943-2.34l1.891,8.793a45.714,45.714,0,0,1-17.656,3.206c-16.4,0-26.01-10.135-26.01-25.616,0-13.943,8.458-27.136,24.707-27.136,16.423,0,21.769,13.5,21.769,24.571a26.747,26.747,0,0,1-.451,5.364Zm22.217-8.9c.055-4.679-1.979-12.311-10.536-12.311-7.863,0-11.134,7.142-11.7,12.311Z" transform="translate(-21.374 -38.976)"/><path class="cls-2" d="M555.993,623.061c0-6.551-.186-11.994-.416-16.745h11.218l.629,7.76h.207c3.714-5.7,9.6-8.9,17.321-8.9,11.579,0,21.193,9.921,21.193,25.689,0,18.325-11.468,27.114-22.974,27.114-6.355,0-11.623-2.656-14.2-6.744h-.208v26.151H555.993Zm12.768,12.626a16.044,16.044,0,0,0,.353,3.483,11.581,11.581,0,0,0,11.218,8.936c8.1,0,12.859-6.733,12.859-16.65,0-8.949-4.348-16.218-12.563-16.218a11.967,11.967,0,0,0-11.406,9.46,13.288,13.288,0,0,0-.461,3.221Z" transform="translate(-21.374 -38.976)"/><path class="cls-2" d="M619.8,622.56c0-6.769-.141-11.743-.416-16.244h11.063l.473,9.6h.36c2.489-7.117,8.379-10.743,13.829-10.743a12.164,12.164,0,0,1,3,.277v12.03a17.343,17.343,0,0,0-3.745-.362c-6.085,0-10.31,3.874-11.451,9.665a21.113,21.113,0,0,0-.327,3.851v26.2H619.8Z" transform="translate(-21.374 -38.976)"/><path class="cls-2" d="M673.406,592.177c.014,3.814-2.756,6.889-7.281,6.889a6.9,6.9,0,1,1,7.281-6.889Zm-13.532,64.66V606.316h12.784v50.521Z" transform="translate(-21.374 -38.976)"/><path class="cls-2" d="M688.929,645.087a28.016,28.016,0,0,0,12.891,3.687c5.62,0,8.131-2.358,8.131-5.671,0-3.422-2.084-5.158-8.3-7.366-9.889-3.386-14.008-8.767-13.964-14.754,0-8.884,7.383-15.808,19.172-15.808a29.117,29.117,0,0,1,13.4,3.017l-2.533,8.967a22.94,22.94,0,0,0-10.686-2.906c-4.542,0-7.074,2.243-7.074,5.35,0,3.208,2.436,4.749,8.82,7.078,9.194,3.25,13.436,7.939,13.48,15.385,0,9.215-7.177,15.861-20.518,15.861a32.726,32.726,0,0,1-15.391-3.539Z" transform="translate(-21.374 -38.976)"/><path class="cls-2" d="M744.95,635.11c.339,9.157,7.425,13.158,15.6,13.158a38.446,38.446,0,0,0,13.943-2.34l1.891,8.793a45.714,45.714,0,0,1-17.656,3.206c-16.4,0-26.01-10.135-26.01-25.616,0-13.943,8.458-27.136,24.707-27.136,16.423,0,21.769,13.5,21.769,24.571a26.747,26.747,0,0,1-.451,5.364Zm22.217-8.9c.055-4.679-1.979-12.311-10.537-12.311-7.862,0-11.133,7.142-11.7,12.311Z" transform="translate(-21.374 -38.976)"/><path class="cls-2" d="M791.978,645.087a28.008,28.008,0,0,0,12.891,3.687c5.62,0,8.131-2.358,8.131-5.671,0-3.422-2.084-5.158-8.3-7.366-9.889-3.386-14.008-8.767-13.964-14.754,0-8.884,7.383-15.808,19.172-15.808a29.117,29.117,0,0,1,13.4,3.017l-2.533,8.967a22.94,22.94,0,0,0-10.686-2.906c-4.543,0-7.074,2.243-7.074,5.35,0,3.208,2.436,4.749,8.819,7.078,9.2,3.25,13.437,7.939,13.481,15.385,0,9.215-7.177,15.861-20.518,15.861a32.723,32.723,0,0,1-15.391-3.539Z" transform="translate(-21.374 -38.976)"/></svg>