<svg id="Logo-FR" xmlns="http://www.w3.org/2000/svg" width="200" height="47.379" viewBox="0 0 200 47.379"><defs><style>.cls-1{fill:#65696b;}.cls-2,.cls-3,.cls-4{fill:none;stroke-miterlimit:10;stroke-width:3px;}.cls-2{stroke:#fbb800;}.cls-3{stroke:#4cc0df;}.cls-4{stroke:#e40521;}</style></defs><title>logo-vsv-verkort-fr</title><path class="cls-1" d="M.494,45.343H199.445a.544.544,0,0,1,.555.494v1.048a.5.5,0,0,1-.555.494H.494A.487.487,0,0,1,0,46.885V45.837A.487.487,0,0,1,.494,45.343Z"/><path class="cls-1" d="M.494,0H199.445A.553.553,0,0,1,200,.555V1.6a.5.5,0,0,1-.555.494H.494A.455.455,0,0,1,0,1.6V.555A.5.5,0,0,1,.494,0Z"/><path class="cls-2" d="M81.467,37.385a1.3,1.3,0,0,1-.8-.309L68.142,24.615a1.079,1.079,0,0,1,0-1.542L80.665,10.611a1.079,1.079,0,0,1,1.542,0L94.731,23.073a1.079,1.079,0,0,1,0,1.542l-12.462,12.4A1.084,1.084,0,0,1,81.467,37.385Z"/><path class="cls-3" d="M48.216,36.336A12.523,12.523,0,1,1,60.8,23.813,12.572,12.572,0,0,1,48.216,36.336Z"/><path class="cls-4" d="M3.181,35.534a1.307,1.307,0,0,1-1.234-2.159l12.277-21.16a1.4,1.4,0,0,1,1.665-.864,1.341,1.341,0,0,1,.864.864L29.03,33.375a1.712,1.712,0,0,1,.185,1.542,1.551,1.551,0,0,1-1.419.617Z"/><path class="cls-1" d="M130.552,11.228a5.061,5.061,0,0,1,5.305,4.873v.309a5.355,5.355,0,0,1-.987,3.023l.432.37a.687.687,0,0,1,.185.987c-.062.062-.062.123-.123.185l-.37.432a.668.668,0,0,1-.926.185c-.062-.062-.123-.062-.185-.123l-.555-.494a5.489,5.489,0,0,1-2.9.864,5.137,5.137,0,0,1-5.3-5.059v-.247a5.108,5.108,0,0,1,5-5.243A1.383,1.383,0,0,1,130.552,11.228Zm0,8.266a3.473,3.473,0,0,0,1.11-.185l-.493-.431a.771.771,0,0,1-.124-1.049l.062-.062.37-.432a.619.619,0,0,1,.925-.185c.062.062.124.062.186.124l.493.493a3.322,3.322,0,0,0,.247-1.357,2.721,2.721,0,1,0-5.429-.37v.432a2.826,2.826,0,0,0,2.529,3.084c0-.062.062-.062.124-.062Zm7.526-7.341a.7.7,0,0,1,.555-.8h1.111a.7.7,0,0,1,.8.555v5.861a1.777,1.777,0,0,0,1.85,1.666,1.744,1.744,0,0,0,1.666-1.666V12.153a.7.7,0,0,1,.555-.8h1.111a.7.7,0,0,1,.8.555v5.861a4.269,4.269,0,0,1-8.514,0l.062-5.614Zm11.228,0a.7.7,0,0,1,.555-.8h1.111a.7.7,0,0,1,.8.555v8.822a.7.7,0,0,1-.556.8h-1.11a.7.7,0,0,1-.8-.555V12.153Zm4.812,8.452a1.863,1.863,0,0,1,.308-.987l3.64-5.121a5.418,5.418,0,0,1,.8-.925h0a3.5,3.5,0,0,1-.8.062H155.1a.7.7,0,0,1-.8-.555v-.741a.7.7,0,0,1,.555-.8h6.293a.7.7,0,0,1,.8.555V12.4a1.864,1.864,0,0,1-.309.987L158,18.569a5.3,5.3,0,0,1-.8.925h0a3.561,3.561,0,0,1,.8-.061h3.27a.651.651,0,0,1,.74.617v.74a.65.65,0,0,1-.617.74h-6.539a.7.7,0,0,1-.8-.555V20.79l.062-.185Zm-48.961,6.046a.7.7,0,0,1,.555-.8H108.8c3.208,0,5.244,1.85,5.244,5.058s-2.1,5.121-5.244,5.121h-2.837a.7.7,0,0,1-.8-.556V26.651Zm3.516,7.279c1.727,0,2.776-.987,2.776-2.961a2.569,2.569,0,0,0-2.776-2.9h-.987v5.984l.987-.124Zm7.65-7.279a.7.7,0,0,1,.555-.8h5.059a.7.7,0,0,1,.8.555v.74a.7.7,0,0,1-.556.8h-3.331V29.8H121.2a.7.7,0,0,1,.8.555v.74a.7.7,0,0,1-.555.8h-2.591v1.913h3.331a.651.651,0,0,1,.741.617v.74a.651.651,0,0,1-.617.74h-5.121a.7.7,0,0,1-.8-.555v-.185l-.061-8.513Zm12.03-.247a.7.7,0,0,1,.555-.8h1.11a.7.7,0,0,1,.8.555v7.526h3.331a.7.7,0,0,1,.8.556v.74a.7.7,0,0,1-.555.8h-5.305a.7.7,0,0,1-.8-.555v-.185l.062-8.637Zm10.734-.124a.817.817,0,0,1,.925-.616h1.3a.817.817,0,0,1,.925.616l2.961,8.7a.679.679,0,0,1-.185.864.508.508,0,0,1-.432.061h-.987a.875.875,0,0,1-.925-.617l-.432-1.48h-3.208l-.432,1.48a.788.788,0,0,1-.863.617h-.987a.611.611,0,0,1-.679-.493,1.046,1.046,0,0,1,.062-.432Zm2.529,5.429-.555-2.035c-.185-.617-.432-1.728-.432-1.728h0a10.869,10.869,0,0,1-.432,1.728l-.617,1.974,2.036.061Zm8.082-5.367a.7.7,0,0,1,.555-.8h2.961a5.265,5.265,0,0,1,1.974.247,2.922,2.922,0,0,1,1.851,2.961,3.122,3.122,0,0,1-1.542,2.776h0a2.927,2.927,0,0,1,.37.555l1.48,2.591a.647.647,0,0,1,0,.8.857.857,0,0,1-.555.186h-1.049a1.018,1.018,0,0,1-.925-.556l-1.481-2.9h-1.172v2.653a.7.7,0,0,1-.555.8H150.5a.7.7,0,0,1-.8-.556v-8.76Zm3.578,3.825a1.172,1.172,0,0,0,1.295-.987V29a.946.946,0,0,0-.555-1.049,2.563,2.563,0,0,0-.987-.185h-.864v2.468l1.111-.062Zm11.043-4.812a5.064,5.064,0,0,1,5.305,4.874v.308a5.306,5.306,0,1,1-10.611,0h0a5.109,5.109,0,0,1,5-5.244A.554.554,0,0,0,164.319,25.355Zm0,8.267a2.871,2.871,0,0,0,2.776-2.9v-.185a2.721,2.721,0,0,0-5.429-.37V30.6a2.783,2.783,0,0,0,2.591,3.023Zm7.588-7.28a.7.7,0,0,1,.555-.8h1.11a.7.7,0,0,1,.8.555v5.861a1.778,1.778,0,0,0,1.851,1.666,1.745,1.745,0,0,0,1.666-1.666V26.342a.7.7,0,0,1,.555-.8h1.11a.7.7,0,0,1,.8.555v5.861a4.269,4.269,0,0,1-8.513,0l.062-5.614Zm13.387,1.3h-2.283a.7.7,0,0,1-.8-.556v-.74a.7.7,0,0,1,.555-.8h7.341a.7.7,0,0,1,.8.555v.741a.7.7,0,0,1-.555.8h-2.467v7.279a.7.7,0,0,1-.556.8h-1.11a.7.7,0,0,1-.8-.555V27.638Zm7.341-1.234a.7.7,0,0,1,.555-.8h5.059a.7.7,0,0,1,.8.555v.74a.7.7,0,0,1-.556.8h-3.269V29.55h2.344a.7.7,0,0,1,.8.555v.741a.7.7,0,0,1-.555.8h-2.529v1.974h3.331a.7.7,0,0,1,.8.555v.74a.7.7,0,0,1-.555.8H193.5a.7.7,0,0,1-.8-.555V26.4Zm-87.17-14.189a.7.7,0,0,1,.555-.8h1.111a.7.7,0,0,1,.8.555v7.526h3.331a.7.7,0,0,1,.8.556v.74a.7.7,0,0,1-.555.8h-5.306a.7.7,0,0,1-.8-.555v-.185l.062-8.637Zm8.39.062a.7.7,0,0,1,.555-.8h5.059a.7.7,0,0,1,.8.555v.74a.7.7,0,0,1-.555.8h-3.332v1.851h2.345a.7.7,0,0,1,.8.555v.74a.7.7,0,0,1-.556.8h-2.591v1.913h3.332a.651.651,0,0,1,.74.617v.74a.651.651,0,0,1-.617.74h-5.12a.7.7,0,0,1-.8-.555V20.79l-.062-8.513Z"/></svg>