<svg id="Logo-FR" xmlns="http://www.w3.org/2000/svg" viewBox="0 0 371.24 76.94" width="200" height="42">
  <defs>
    <style>.cls-1{fill:#65696b;}.cls-2,.cls-3,.cls-4{fill:none;stroke-miterlimit:10;stroke-width:3px;}.cls-2{stroke:#fbb800;}.cls-3{stroke:#4cc0df;}.cls-4{stroke:#e40521;}</style>
  </defs>
  <title>Le Grand Quiz de la Route</title>
  <path class="cls-1" d="M1.5,73.5h368.9c0.5,0,0.9,0.4,0.9,0.8V76c0,0.5-0.4,0.8-0.9,0.8H1.5c-0.5,0-0.8-0.4-0.8-0.8v-1.7C0.7,73.9,1,73.5,1.5,73.5z"></path>
  <path class="cls-1" d="M1.5,0h368.9c0.5,0,0.9,0.4,0.9,0.9v1.7c0,0.5-0.4,0.8-0.9,0.8H1.5C1,3.4,0.7,3.1,0.7,2.6V0.9C0.7,0.4,1,0,1.5,0z"></path>
  <path class="cls-2" d="M130.9,60.6c-0.5,0-0.9-0.2-1.3-0.5l-20.3-20.2c-0.7-0.7-0.7-1.8,0-2.5l20.3-20.2c0.7-0.7,1.8-0.7,2.5,0l20.3,20.2c0.7,0.7,0.7,1.8,0,2.5L132.2,60C131.8,60.4,131.4,60.6,130.9,60.6z" style="stroke-dashoffset: 2e-05; stroke-dasharray: none;"></path>
  <path class="cls-3" d="M77,58.9c-11.2-0.1-20.2-9.2-20.2-20.4S66,18.3,77.2,18.3c11.2,0.1,20.2,9.1,20.2,20.3C97.4,49.8,88.3,58.9,77,58.9z" style="stroke-dashoffset: 2e-05; stroke-dasharray: none;"></path>
  <path class="cls-4" d="M4,57.6c-1.1,0.2-2.3-0.5-2.5-1.6c-0.1-0.7,0-1.4,0.5-1.9l19.9-34.3c0.4-1.1,1.6-1.7,2.7-1.4c0.6,0.2,1.2,0.7,1.4,1.4l19.9,34.3c0.5,0.7,0.6,1.7,0.3,2.5c-0.5,0.7-1.4,1.1-2.3,1H4L4,57.6z" style="stroke-dashoffset: 2e-05; stroke-dasharray: none;"></path>
  <path class="cls-1" d="M300.8,18.2c4.6-0.2,8.5,3.4,8.6,7.9c0,0.2,0,0.3,0,0.5c0,1.7-0.6,3.5-1.6,4.9l0.7,0.6c0.5,0.3,0.7,1,0.3,1.6c-0.1,0.1-0.1,0.2-0.2,0.3l-0.6,0.7c-0.3,0.5-0.9,0.6-1.5,0.3c-0.1-0.1-0.2-0.1-0.3-0.2l-0.9-0.8c-1.4,0.9-3.1,1.4-4.7,1.4c-4.7,0.1-8.5-3.5-8.6-8.2c0-0.2,0-0.3,0-0.4c-0.1-4.6,3.5-8.4,8.1-8.5C300.5,18.2,300.6,18.2,300.8,18.2z M300.8,31.6c0.6,0,1.2-0.1,1.8-0.3l-0.8-0.7c-0.5-0.4-0.6-1.2-0.2-1.7l0.1-0.1l0.6-0.7c0.3-0.5,0.9-0.7,1.5-0.3c0.1,0.1,0.2,0.1,0.3,0.2l0.8,0.8c0.3-0.7,0.4-1.4,0.4-2.2c0.2-2.5-1.6-4.6-4.1-4.7c-2.5-0.2-4.6,1.6-4.7,4.1c0,0.3,0,0.4,0,0.7c-0.3,2.5,1.6,4.7,4.1,5C300.6,31.6,300.7,31.6,300.8,31.6L300.8,31.6z"></path>
  <path class="cls-1" d="M313,19.7c-0.1-0.6,0.3-1.2,0.9-1.3c0.1,0,0.2,0,0.3,0h1.5c0.6-0.1,1.2,0.3,1.3,0.9c0,0.1,0,0.2,0,0.3v9.2c0.1,1.6,1.5,2.8,3,2.7c1.5-0.1,2.6-1.2,2.7-2.7v-9.1c-0.1-0.6,0.3-1.2,0.9-1.3c0.1,0,0.3,0,0.3,0h1.5c0.6-0.1,1.2,0.3,1.3,0.9c0,0.1,0,0.2,0,0.3v9.2c0,3.7-2.8,6.4-6.9,6.4s-6.9-2.7-6.9-6.4L313,19.7L313,19.7z"></path>
  <path class="cls-1" d="M331.2,19.7c-0.1-0.6,0.3-1.2,0.9-1.3c0.1,0,0.2,0,0.3,0h1.5c0.6-0.1,1.2,0.3,1.3,0.9c0,0.1,0,0.2,0,0.3v14c0.1,0.6-0.3,1.2-0.9,1.3c-0.1,0-0.2,0-0.3,0h-1.5c-0.6,0.1-1.2-0.3-1.3-0.9c0-0.1,0-0.2,0-0.3V19.7L331.2,19.7z"></path>
  <path class="cls-1" d="M339,33.4c0-0.6,0.2-1.1,0.5-1.6l5.9-8.3c0.3-0.5,0.8-1,1.3-1.5l0,0c-0.4,0.1-0.9,0.1-1.3,0.1h-4.8c-0.6,0.1-1.2-0.3-1.3-0.9c0-0.1,0-0.2,0-0.3V20c-0.1-0.6,0.3-1.2,0.9-1.3c0.1,0,0.2,0,0.3,0h9.9c0.6-0.1,1.2,0.3,1.3,0.9c0,0.1,0,0.2,0,0.3v0.2c0,0.6-0.2,1.1-0.5,1.6l-5.9,8.4c-0.3,0.5-0.8,1-1.3,1.5l0,0c0.4-0.1,0.9-0.1,1.3-0.1h5.3c0.6-0.1,1.2,0.4,1.2,1c0,0.1,0,0.2,0,0.3v0.9c0.1,0.6-0.4,1.2-1,1.2c-0.1,0-0.1,0-0.2,0h-10.4c-0.6,0.1-1.2-0.3-1.3-0.9c0-0.1,0-0.2,0-0.3L339,33.4L339,33.4z"></path>
  <path class="cls-1" d="M169.3,43.2c-0.1-0.6,0.3-1.2,0.9-1.3c0.1,0,0.2,0,0.3,0h4.7c5.2,0,8.5,3,8.5,8.2s-3.4,8.3-8.5,8.3h-4.6c-0.6,0.1-1.2-0.3-1.3-0.9c0-0.1,0-0.2,0-0.3V43.2L169.3,43.2z M175,55c2.8,0,4.5-1.6,4.5-4.8s-1.8-4.7-4.5-4.7h-1.6v9.7L175,55L175,55z"></path>
  <path class="cls-1" d="M187.4,43.2c-0.1-0.6,0.3-1.2,0.9-1.3c0.1,0,0.2,0,0.3,0h7.9c0.6-0.1,1.2,0.3,1.3,0.9c0,0.1,0,0.2,0,0.3v0.9c0.1,0.6-0.3,1.2-0.9,1.3c-0.1,0-0.2,0-0.3,0h-5.1v3h3.8c0.6-0.1,1.2,0.3,1.3,0.9c0,0.1,0,0.2,0,0.3v0.9c0.1,0.6-0.3,1.2-0.9,1.3c-0.1,0-0.2,0-0.3,0h-3.9v3.1h5.4c0.6-0.1,1.2,0.4,1.2,1c0,0.1,0,0.2,0,0.3v0.9c0.1,0.6-0.4,1.2-1,1.2c-0.1,0-0.1,0-0.2,0h-8.1c-0.6,0.1-1.2-0.3-1.3-0.9c0-0.1,0-0.2,0-0.3L187.4,43.2L187.4,43.2z"></path>
  <path class="cls-1" d="M206.9,42.8c-0.1-0.6,0.3-1.2,0.9-1.3c0.1,0,0.2,0,0.3,0h1.5c0.6-0.1,1.2,0.3,1.3,0.9c0,0.1,0,0.2,0,0.3v11.9h5.4c0.6-0.1,1.2,0.3,1.3,0.9c0,0.1,0,0.2,0,0.3v0.9c0.1,0.6-0.3,1.2-0.9,1.3c-0.1,0-0.2,0-0.3,0h-8.3c-0.6,0.1-1.2-0.3-1.3-0.9c0-0.1,0-0.2,0-0.3L206.9,42.8L206.9,42.8z"></path>
  <path class="cls-1" d="M224.3,42.6c0.2-0.7,0.8-1.1,1.5-1h2.1c0.7-0.1,1.3,0.3,1.5,1l4.8,14.1c0.3,0.5,0.1,1-0.3,1.4c-0.2,0.1-0.4,0.2-0.7,0.1h-1.6c-0.7,0.1-1.3-0.4-1.5-1l-0.7-2.4h-5.2l-0.7,2.4c-0.2,0.7-0.8,1.1-1.4,1h-1.6c-0.5,0.1-1-0.3-1.1-0.8c0-0.3,0-0.4,0.1-0.7L224.3,42.6z M228.4,51.4l-0.9-3.3c-0.3-1-0.7-2.8-0.7-2.8l0,0c0,0-0.3,1.8-0.7,2.8l-1,3.2L228.4,51.4L228.4,51.4z"></path>
  <path class="cls-1" d="M241.5,42.7c-0.1-0.6,0.3-1.2,0.9-1.3c0.1,0,0.2,0,0.3,0h4.5c1.1-0.1,2.2,0.1,3.2,0.4c2,0.8,3.2,2.8,3,4.8c0.1,1.8-0.9,3.5-2.5,4.5l0,0c0.3,0.3,0.4,0.6,0.6,0.9l2.4,4.2c0.3,0.3,0.3,0.9,0,1.3c-0.3,0.2-0.5,0.3-0.9,0.3h-1.7c-0.6,0-1.2-0.3-1.5-0.9l-2.4-4.7h-1.9v4.3c0.1,0.6-0.3,1.2-0.9,1.3c-0.1,0-0.2,0-0.3,0h-1.5c-0.6,0.1-1.2-0.3-1.3-0.9c0-0.1,0-0.2,0-0.3L241.5,42.7L241.5,42.7z M247.3,48.9c1,0.1,2-0.6,2.1-1.6c0-0.1,0-0.3,0-0.3c0.1-0.8-0.3-1.5-0.9-1.7c-0.5-0.2-1-0.3-1.6-0.3h-1.4V49L247.3,48.9L247.3,48.9z"></path>
  <path class="cls-1" d="M265.2,41.1c4.6-0.2,8.5,3.4,8.6,7.9c0,0.2,0,0.3,0,0.5c0,4.7-3.9,8.6-8.6,8.6c-4.7,0-8.6-3.9-8.6-8.6l0,0c-0.1-4.6,3.5-8.4,8.1-8.5C264.9,41.1,265,41.1,265.2,41.1z M265.2,54.5c2.5-0.1,4.6-2.2,4.5-4.7c0-0.1,0-0.2,0-0.3c0.2-2.5-1.6-4.6-4.1-4.7c-2.5-0.2-4.6,1.6-4.7,4.1c0,0.3,0,0.4,0,0.7c-0.2,2.5,1.6,4.7,4.2,4.9C265,54.5,265.1,54.5,265.2,54.5z"></path>
  <path class="cls-1" d="M277.5,42.7c-0.1-0.6,0.3-1.2,0.9-1.3c0.1,0,0.2,0,0.3,0h1.5c0.6-0.1,1.2,0.3,1.3,0.9c0,0.1,0,0.2,0,0.3v9.2c0.1,1.6,1.5,2.8,3,2.7c1.5-0.1,2.6-1.2,2.7-2.7v-9.1c-0.1-0.6,0.3-1.2,0.9-1.3c0.1,0,0.2,0,0.3,0h1.5c0.6-0.1,1.2,0.3,1.3,0.9c0,0.1,0,0.2,0,0.3v9.2c0,3.7-2.8,6.4-6.9,6.4s-6.9-2.7-6.9-6.4L277.5,42.7L277.5,42.7z"></path>
  <path class="cls-1" d="M299.2,44.8h-3.7c-0.6,0.1-1.2-0.3-1.3-0.9c0-0.1,0-0.2,0-0.3v-0.9c-0.1-0.6,0.3-1.2,0.9-1.3c0.1,0,0.2,0,0.3,0H307c0.6-0.1,1.2,0.3,1.3,0.9c0,0.1,0,0.2,0,0.3v0.9c0.1,0.6-0.3,1.2-0.9,1.3c-0.1,0-0.2,0-0.3,0h-3.7v11.8c0.1,0.6-0.3,1.2-0.9,1.3c-0.1,0-0.2,0-0.3,0h-1.5c-0.6,0.1-1.2-0.3-1.3-0.9c0-0.1,0-0.2,0-0.3V44.8H299.2z"></path>
  <path class="cls-1" d="M311.1,42.8c-0.1-0.6,0.3-1.2,0.9-1.3c0.1,0,0.2,0,0.3,0h7.9c0.6-0.1,1.2,0.3,1.3,0.9c0,0.1,0,0.2,0,0.3v0.9c0.1,0.6-0.3,1.2-0.9,1.3c-0.1,0-0.2,0-0.3,0h-5v3h3.8c0.6-0.1,1.2,0.3,1.3,0.9c0,0.1,0,0.2,0,0.3v0.9c0.1,0.6-0.3,1.2-0.9,1.3c-0.1,0-0.2,0-0.3,0h-3.8v3.2h5.4c0.6-0.1,1.2,0.3,1.3,0.9c0,0.1,0,0.2,0,0.3v0.9c0.1,0.6-0.3,1.2-0.9,1.3c-0.1,0-0.2,0-0.3,0h-8.4c-0.6,0.1-1.2-0.3-1.3-0.9c0-0.1,0-0.2,0-0.3V42.8L311.1,42.8z"></path>
  <path class="cls-1" d="M169.8,19.8c-0.1-0.6,0.3-1.2,0.9-1.3c0.1,0,0.2,0,0.3,0h1.5c0.6-0.1,1.2,0.3,1.3,0.9c0,0.1,0,0.2,0,0.3v11.9h5.4c0.6-0.1,1.2,0.3,1.3,0.9c0,0.1,0,0.2,0,0.3v0.9c0.1,0.6-0.3,1.2-0.9,1.3c-0.1,0-0.2,0-0.3,0H171c-0.6,0.1-1.2-0.3-1.3-0.9c0-0.1,0-0.2,0-0.3L169.8,19.8L169.8,19.8z"></path>
  <path class="cls-1" d="M183.4,19.9c-0.1-0.6,0.3-1.2,0.9-1.3c0.1,0,0.2,0,0.3,0h7.9c0.6-0.1,1.2,0.3,1.3,0.9c0,0.1,0,0.2,0,0.3v0.9c0.1,0.6-0.3,1.2-0.9,1.3c-0.1,0-0.2,0-0.3,0h-5.1v3h3.8c0.6-0.1,1.2,0.3,1.3,0.9c0,0.1,0,0.2,0,0.3v0.9c0.1,0.6-0.3,1.2-0.9,1.3c-0.1,0-0.2,0-0.3,0h-3.9v3.1h5.4c0.6-0.1,1.2,0.4,1.2,1c0,0.1,0,0.2,0,0.3v0.9c0.1,0.6-0.4,1.2-1,1.2c-0.1,0-0.1,0-0.2,0h-8.1c-0.6,0.1-1.2-0.3-1.3-0.9c0-0.1,0-0.2,0-0.3L183.4,19.9L183.4,19.9z"></path>
  <path class="cls-1" d="M209.5,18.7c1.8,0,3.6,0.5,5.2,1.4c0.5,0.3,0.7,1,0.5,1.5c0,0.1-0.1,0.1-0.1,0.2l-0.6,0.9c-0.3,0.5-1,0.7-1.5,0.5c-0.1,0-0.1-0.1-0.2-0.1c-0.9-0.5-1.9-0.8-3-0.8c-2.3-0.2-4.4,1.5-4.6,3.8c0,0.2,0,0.5,0,0.7c-0.1,2.5,1.8,4.6,4.3,4.8c0.1,0,0.2,0,0.3,0c1.2,0.1,2.4-0.4,3.3-1.3v-1.1h-1c-0.6,0.1-1.1-0.3-1.2-0.9c0-0.1,0-0.2,0-0.3v-0.8c-0.1-0.6,0.3-1.1,0.9-1.2c0.1,0,0.2,0,0.3,0h3.3c0.6-0.1,1.1,0.3,1.2,0.9c0,0.1,0,0.1,0,0.2v6.6c0.1,0.6-0.3,1.1-0.9,1.2c-0.1,0-0.2,0-0.3,0h-0.7c-0.6,0.1-1.1-0.3-1.2-0.8c0,0,0-0.1,0-0.1v0c0-0.1,0-0.1,0-0.2h0c-1.2,1-2.7,1.6-4.2,1.5c-4.3,0-7.8-3.5-7.9-7.8c0-0.1,0-0.2,0-0.4c-0.1-4.4,3.4-8.2,7.8-8.3C209.1,18.7,209.3,18.7,209.5,18.7z"></path>
  <path class="cls-1" d="M220.4,19.9c-0.1-0.6,0.3-1.2,0.9-1.3c0.1,0,0.2,0,0.3,0h4.5c1.1-0.1,2.2,0.1,3.2,0.4c2,0.8,3.2,2.8,3,4.8c0.1,1.8-0.9,3.5-2.5,4.5l0,0c0.3,0.3,0.4,0.6,0.6,0.9l2.4,4.2c0.3,0.3,0.3,0.9,0,1.3c-0.3,0.2-0.5,0.3-0.9,0.3h-1.7c-0.6,0-1.2-0.3-1.5-0.9l-2.4-4.7h-1.9v4.3c0.1,0.6-0.3,1.2-0.9,1.3c-0.1,0-0.2,0-0.3,0h-1.5c-0.6,0.1-1.2-0.3-1.3-0.9c0-0.1,0-0.2,0-0.3L220.4,19.9L220.4,19.9z M226.2,26.1c1,0.1,2-0.6,2.1-1.6c0-0.1,0-0.3,0-0.3c0.1-0.8-0.3-1.5-0.9-1.7c-0.5-0.2-1-0.3-1.6-0.3h-1.4v4.1L226.2,26.1L226.2,26.1z"></path>
  <path class="cls-1" d="M239.9,19.6c0.2-0.7,0.8-1.1,1.5-1h2.1c0.7-0.1,1.3,0.3,1.5,1l4.8,14.1c0.3,0.5,0.1,1-0.3,1.4c-0.2,0.1-0.4,0.2-0.7,0.1h-1.6c-0.7,0.1-1.3-0.4-1.5-1l-0.7-2.4h-5.2l-0.7,2.4c-0.2,0.7-0.8,1.1-1.4,1h-1.6c-0.5,0.1-1-0.3-1.1-0.8c0-0.3,0-0.4,0.1-0.7L239.9,19.6z M244,28.4l-0.9-3.3c-0.3-1-0.7-2.8-0.7-2.8l0,0c0,0-0.3,1.8-0.7,2.8l-1,3.2L244,28.4L244,28.4z"></path>
  <path class="cls-1" d="M270.5,19.9c-0.1-0.6,0.3-1.2,0.9-1.3c0.1,0,0.2,0,0.3,0h4.7c5.2,0,8.5,3,8.5,8.2s-3.4,8.3-8.5,8.3h-4.6c-0.6,0.1-1.2-0.3-1.3-0.9c0-0.1,0-0.2,0-0.3V19.9L270.5,19.9z M276.2,31.8c2.8,0,4.5-1.6,4.5-4.8s-1.8-4.7-4.5-4.7h-1.6v9.7L276.2,31.8L276.2,31.8z"></path>
  <path class="cls-1" d="M256.4,24.7v9.6c0,0,0.3,0.8-1,1h-2c0,0-0.8,0-1-1V19.8c0,0-0.1-1.3,1.1-1.3l1.9,0c0,0,1,0,1.9,1.4l5.4,9.5v-9.5c0,0,0-1.1,1-1.4h1.6c0,0,1.5,0.1,1.2,2l0,13.6c0,0,0,1.3-1.3,1.3l-2.2,0c0,0-0.6,0.1-1.7-1.6L256.4,24.7z"></path>
</svg>
